<svg xmlns="http://www.w3.org/2000/svg" width="200" height="200" class="icon" p-id="4353" t="1707144507416" version="1.1" viewBox="0 0 1024 1024"><path d="M329.142857 768q0 45.714286-32 77.714286t-77.714286 32-77.714286-32-32-77.714286 32-77.714286 77.714286-32 77.714286 32 32 77.714286zm292.571429 70.285714q1.142857 16-9.714286 27.428571-10.285714 12-26.857143 12l-77.142857 0q-14.285714 0-24.571429-9.428571t-11.428571-23.714286q-12.571429-130.857143-105.428571-223.714286t-223.714286-105.428571q-14.285714-1.142857-23.714286-11.428571t-9.428571-24.571429l0-77.142857q0-16.571429 12-26.857143 9.714286-9.714286 24.571429-9.714286l2.857143 0q91.428571 7.428571 174.857143 46t148 103.714286q65.142857 64.571429 103.714286 148t46 174.857143zm292.571429 1.142857q1.142857 15.428571-10.285714 26.857143-10.285714 11.428571-26.285714 11.428571l-81.714286 0q-14.857143 0-25.428571-10t-11.142857-24.285714q-6.857143-122.857143-57.714286-233.428571t-132.285714-192-192-132.285714-233.428571-58.285714q-14.285714-0.571429-24.285714-11.142857t-10-24.857143l0-81.714286q0-16 11.428571-26.285714 10.285714-10.285714 25.142857-10.285714l1.714286 0q149.714286 7.428571 286.571429 68.571429t243.142857 168q106.857143 106.285714 168 243.142857t68.571429 286.571429z" p-id="4354"/></svg>