<?xml version="1.0" standalone="no"?>
<!DOCTYPE svg PUBLIC "-//W3C//DTD SVG 20010904//EN"
 "http://www.w3.org/TR/2001/REC-SVG-20010904/DTD/svg10.dtd">
<svg version="1.0" xmlns="http://www.w3.org/2000/svg"
 width="640.000000pt" height="640.000000pt" viewBox="0 0 640.000000 640.000000"
 preserveAspectRatio="xMidYMid meet">
<metadata>
Created by potrace 1.14, written by Peter Selinger 2001-2017
</metadata>
<g transform="translate(0.000000,640.000000) scale(0.100000,-0.100000)"
fill="#000000" stroke="none">
<path d="M3976 6350 c-21 -27 -43 -47 -48 -44 -25 15 -76 15 -92 -1 -16 -16
-107 -29 -286 -40 -41 -2 -109 -13 -150 -25 -41 -11 -104 -28 -140 -36 -112
-27 -161 -46 -214 -81 -28 -18 -55 -33 -60 -33 -5 0 -14 -8 -21 -17 -11 -15
-28 -17 -107 -15 -85 2 -100 -1 -144 -24 -63 -33 -142 -55 -151 -41 -3 6 -43
8 -98 5 -75 -4 -98 -9 -120 -27 -15 -11 -34 -21 -41 -21 -21 0 -123 -68 -153
-102 -26 -30 -34 -32 -157 -46 -71 -8 -154 -14 -184 -14 -53 1 -85 -10 -160
-54 -14 -8 -40 -13 -60 -10 -19 2 -55 -1 -80 -6 -30 -6 -105 -4 -215 4 -94 7
-243 12 -332 10 l-162 -3 -31 -29 c-30 -28 -32 -29 -37 -10 -3 11 -9 17 -14
14 -5 -3 -9 0 -9 5 0 14 -33 14 -65 -1 -18 -8 -22 -14 -13 -20 7 -4 -40 -8
-105 -8 -106 0 -122 -2 -150 -22 -16 -12 -44 -21 -61 -21 -128 4 -161 2 -164
-7 -2 -5 -8 -10 -14 -10 -6 0 -23 -11 -40 -25 -19 -16 -42 -25 -64 -25 l-34 0
0 -2785 0 -2785 3200 0 3200 0 0 3200 0 3200 -1193 0 -1193 0 -38 -50z m1078
-666 c3 -9 6 -23 6 -32 -1 -15 -3 -14 -15 2 -17 22 -20 46 -6 46 5 0 12 -7 15
-16z m-2664 -94 c0 -5 -2 -10 -4 -10 -3 0 -8 5 -11 10 -3 6 -1 10 4 10 6 0 11
-4 11 -10z m82 -50 c16 -16 34 -30 39 -30 5 0 9 -4 9 -10 0 -5 7 -10 15 -10
18 0 20 -26 3 -33 -18 -6 -48 11 -80 44 -15 16 -31 29 -36 29 -5 0 -12 9 -15
20 -8 31 29 25 65 -10z m112 -96 c4 -10 1 -14 -6 -12 -15 5 -23 28 -10 28 5 0
13 -7 16 -16z m88 -74 c32 -33 58 -68 59 -77 0 -16 1 -16 8 1 6 17 8 17 14 4
6 -18 -19 -33 -28 -17 -4 5 -24 18 -46 29 -29 16 -39 26 -39 45 0 18 -5 25
-20 25 -15 0 -20 7 -20 25 0 14 3 25 7 25 3 0 32 -27 65 -60z m163 -169 c6 -3
17 -6 25 -8 8 -1 19 -8 25 -15 14 -17 72 -48 91 -48 8 0 14 -7 14 -15 0 -9 9
-15 25 -15 34 0 70 -68 59 -113 -4 -18 -8 -35 -8 -39 -2 -15 -16 -20 -16 -5 0
10 -4 17 -9 17 -5 0 -17 20 -27 45 -9 25 -23 45 -30 45 -7 0 -27 14 -44 30
-17 17 -33 30 -37 30 -7 0 -107 91 -111 102 -4 8 22 1 43 -11z m580 -141 l40
-19 -30 -2 c-16 -1 -39 -2 -50 -3 -11 -1 -45 3 -75 10 -30 6 -45 12 -32 13 12
0 22 6 22 11 0 17 83 10 125 -10z m-328 -132 c-3 -8 -6 -5 -6 6 -1 11 2 17 5
13 3 -3 4 -12 1 -19z m1973 -168 c0 -38 -4 -71 -9 -74 -12 -8 -51 73 -51 105
0 23 34 50 53 42 4 -3 7 -35 7 -73z m-1295 -258 c-2 -7 6 -17 19 -22 13 -5 34
-26 46 -47 31 -50 30 -49 40 -33 7 12 10 11 16 -5 10 -26 30 -46 38 -38 3 4 6
1 6 -6 0 -7 7 -19 15 -27 19 -19 19 -60 1 -111 -13 -36 -12 -42 2 -57 15 -14
14 -18 -8 -41 -13 -14 -31 -25 -41 -25 -10 0 -21 -9 -24 -20 -7 -24 -18 -25
-34 -6 -8 10 -9 16 -1 21 5 3 10 11 10 16 0 6 -4 7 -10 4 -5 -3 -10 -1 -10 4
0 18 -18 12 -25 -8 -3 -11 -13 -22 -21 -25 -9 -4 -12 -2 -8 5 4 8 -1 9 -15 4
-12 -4 -28 -2 -35 5 -11 8 -18 7 -30 -5 -9 -9 -16 -22 -17 -28 -1 -24 -10 -72
-14 -75 -7 -7 -45 23 -45 35 0 7 -4 13 -9 13 -5 0 -25 16 -46 35 -34 30 -36
36 -24 51 8 10 15 42 16 75 1 58 24 108 50 109 6 0 17 -16 24 -35 7 -19 16
-35 20 -35 4 0 15 -13 26 -29 18 -29 19 -29 40 -13 14 11 24 32 27 58 4 40 4
42 -34 54 -22 7 -37 17 -34 21 3 5 -2 9 -10 9 -9 0 -16 7 -16 15 0 8 -4 15
-10 15 -5 0 -10 6 -10 13 0 8 -8 22 -18 33 -15 16 -16 23 -6 42 22 43 74 73
121 70 30 -2 42 -7 38 -16z m1239 -195 c25 -18 32 -88 13 -118 -10 -15 -18
-62 -22 -129 -8 -123 -15 -142 -37 -107 -15 22 -35 111 -30 131 3 10 -17 36
-28 36 -4 0 -15 -16 -25 -36 l-17 -36 -24 23 c-25 23 -33 72 -14 84 6 4 8 10
6 14 -9 14 41 34 67 27 22 -5 25 -2 30 35 3 23 16 52 28 65 26 28 29 28 53 11z
m-3154 -137 c0 -5 -5 -10 -11 -10 -5 0 -7 5 -4 10 3 6 8 10 11 10 2 0 4 -4 4
-10z m2636 -95 c4 -8 12 -15 20 -15 8 0 14 -4 14 -9 0 -16 -65 4 -68 22 -4 21
26 23 34 2z m260 -27 c-4 -23 -9 -44 -11 -47 -9 -9 -55 23 -55 37 0 21 31 51
54 51 16 1 18 -4 12 -41z m-366 18 c0 -8 -4 -18 -10 -21 -5 -3 -10 3 -10 14 0
12 5 21 10 21 6 0 10 -6 10 -14z m-35 -6 c3 -5 1 -10 -4 -10 -6 0 -11 5 -11
10 0 6 2 10 4 10 3 0 8 -4 11 -10z m298 -4 c9 -7 17 -18 17 -23 0 -5 9 -18 20
-28 11 -10 20 -31 20 -46 0 -26 -2 -27 -31 -19 -40 12 -60 29 -57 49 2 9 -7
20 -19 26 -13 5 -23 14 -23 20 0 5 -4 4 -9 -3 -7 -11 -9 -10 -14 3 -12 29 63
46 96 21z m-770 -458 c4 -10 8 -9 16 2 9 12 11 9 12 -15 1 -16 1 -34 0 -39 -3
-14 32 -35 57 -36 13 0 33 5 44 11 15 8 19 8 14 0 -4 -6 0 -11 10 -11 9 0 22
-7 28 -15 8 -11 35 -17 91 -20 65 -4 83 -9 97 -25 9 -11 21 -20 27 -20 10 0 9
-25 -4 -67 -2 -6 6 -27 19 -46 45 -65 41 -228 -5 -242 -9 -3 -20 -12 -22 -20
-7 -16 -44 -9 -65 12 -14 13 -31 16 -119 18 -68 1 -103 20 -103 55 0 15 -5 41
-11 58 -9 26 -15 31 -33 26 -14 -3 -43 7 -82 28 -32 18 -65 33 -71 34 -7 1
-20 2 -28 3 -8 0 -17 11 -20 24 -4 12 -16 27 -27 32 -29 13 -43 64 -20 72 26
9 52 35 46 45 -3 5 3 12 14 15 13 3 23 17 27 34 8 34 10 35 57 9 40 -21 49
-16 54 26 1 12 -4 25 -12 28 -8 3 -14 12 -14 21 0 18 16 20 23 3z m990 -86
c-3 -9 -14 -36 -25 -60 -32 -72 -33 -95 -4 -140 14 -22 29 -43 35 -46 5 -3 19
-27 31 -52 13 -25 33 -50 45 -56 17 -7 29 -30 46 -87 13 -42 24 -88 25 -102 1
-14 12 -57 23 -96 12 -39 28 -122 36 -184 8 -62 20 -118 25 -123 6 -6 10 -30
10 -56 0 -25 7 -88 16 -140 9 -52 18 -109 21 -126 3 -20 -2 -45 -16 -72 -12
-23 -21 -55 -21 -71 0 -16 -4 -33 -10 -36 -5 -3 -10 -19 -10 -34 0 -16 -16
-60 -36 -99 l-35 -72 -25 16 c-16 11 -24 26 -24 46 0 30 -10 44 -45 64 -25 14
-33 54 -11 54 26 0 21 64 -7 94 -13 14 -27 23 -30 19 -4 -3 -7 15 -7 40 0 26
-4 47 -10 47 -5 0 -10 10 -10 22 0 12 -7 30 -17 40 -9 11 -11 18 -5 18 7 0 12
12 12 27 0 15 5 41 12 59 16 44 0 79 -40 87 -27 5 -30 10 -34 56 -6 58 -21 81
-54 81 -27 0 -32 6 -38 53 -2 19 -9 45 -16 57 -6 12 -9 29 -6 37 4 9 4 24 0
35 -4 15 -12 18 -33 13 -23 -5 -29 -1 -39 20 -7 14 -12 37 -12 51 0 14 -12 37
-26 51 l-27 27 -17 -22 c-17 -20 -18 -21 -23 -3 -2 11 0 24 6 30 7 7 7 11 1
11 -5 0 -15 -5 -22 -12 -8 -8 -14 -5 -23 14 -6 14 -22 32 -35 39 -24 12 -33
39 -14 39 6 0 10 6 10 13 0 6 13 21 29 32 17 10 34 30 40 42 6 13 16 23 22 23
6 0 9 7 5 15 -3 10 6 20 27 31 17 9 45 31 62 48 16 17 47 44 68 61 22 16 43
39 48 52 5 15 20 26 39 29 16 4 31 12 31 18 5 50 19 76 45 82 13 3 24 10 24
16 0 5 4 7 10 3 5 -3 6 -13 3 -23z m-3351 -1317 c0 -5 -5 -11 -11 -13 -6 -2
-11 4 -11 13 0 9 5 15 11 13 6 -2 11 -8 11 -13z m1792 -231 c9 -8 16 -20 16
-26 0 -5 6 -24 13 -41 38 -89 45 -132 49 -325 1 -46 -23 -82 -68 -102 -57 -27
-67 -25 -83 10 -10 24 -10 34 -1 45 15 18 0 40 -31 50 -11 4 -23 22 -29 47 -6
22 -20 50 -32 62 -15 16 -19 30 -15 61 3 21 13 44 21 51 10 7 16 27 16 54 0
23 7 57 16 75 23 49 96 71 128 39z m-1039 -243 c-10 -39 -25 -54 -41 -40 -17
14 -18 81 -1 98 19 19 50 -25 42 -58z"/>
<path d="M3810 4300 c0 -5 5 -10 10 -10 6 0 10 5 10 10 0 6 -4 10 -10 10 -5 0
-10 -4 -10 -10z"/>
<path d="M3827 4274 c-11 -11 3 -24 24 -24 12 0 19 5 17 13 -5 14 -31 21 -41
11z"/>
<path d="M3296 1573 c-11 -27 8 -34 21 -7 9 19 8 24 -2 24 -7 0 -16 -8 -19
-17z"/>
</g>
</svg>
