<?xml version="1.0" standalone="no"?>
<!DOCTYPE svg PUBLIC "-//W3C//DTD SVG 20010904//EN"
 "http://www.w3.org/TR/2001/REC-SVG-20010904/DTD/svg10.dtd">
<svg version="1.0" xmlns="http://www.w3.org/2000/svg"
 width="640.000000pt" height="640.000000pt" viewBox="0 0 640.000000 640.000000"
 preserveAspectRatio="xMidYMid meet">
<metadata>
Created by potrace 1.14, written by Peter Selinger 2001-2017
</metadata>
<g transform="translate(0.000000,640.000000) scale(0.100000,-0.100000)"
fill="#000000" stroke="none">
<path d="M4060 6384 c0 -9 -15 -30 -32 -46 -26 -25 -32 -38 -32 -69 1 -37 1
-38 -30 -32 -17 3 -40 14 -51 24 -19 17 -23 17 -49 3 -16 -8 -75 -19 -130 -25
-56 -7 -114 -17 -131 -25 -16 -7 -71 -14 -121 -16 -70 -2 -97 -7 -111 -20 -11
-10 -49 -22 -87 -27 -38 -6 -74 -15 -79 -20 -6 -6 -28 -11 -48 -11 -27 0 -49
-10 -85 -39 -65 -51 -127 -71 -223 -71 -54 0 -82 -4 -90 -14 -6 -7 -30 -17
-54 -20 -23 -4 -59 -18 -79 -31 -45 -30 -50 -30 -73 -5 -14 15 -31 20 -71 20
-46 0 -56 -4 -70 -25 -9 -14 -25 -25 -37 -25 -30 0 -104 -39 -185 -98 -68 -50
-78 -54 -140 -58 -203 -13 -322 -30 -351 -52 -23 -17 -44 -22 -89 -22 -34 0
-72 -7 -88 -15 -40 -21 -223 -11 -242 13 -10 14 -37 16 -180 14 -221 -2 -241
-6 -249 -43 -4 -21 -11 -29 -22 -26 -9 2 -29 -3 -44 -11 -58 -28 -174 -31
-217 -5 -25 15 -32 15 -55 3 -19 -10 -28 -11 -37 -2 -19 19 -40 14 -82 -18
-22 -17 -47 -30 -56 -30 -9 0 -21 -5 -27 -11 -7 -7 -19 -3 -41 15 -36 32 -58
33 -73 5 -9 -18 -7 -27 10 -50 12 -15 21 -37 21 -48 0 -12 9 -21 25 -25 15 -4
25 -14 25 -24 0 -16 -10 -18 -85 -18 -68 0 -86 3 -90 16 -3 10 -20 16 -55 17
l-50 2 0 -67 c0 -40 5 -73 12 -80 9 -9 9 -12 0 -12 -9 0 -12 -58 -12 -230 l0
-230 33 0 c22 0 43 -9 65 -30 39 -35 71 -38 97 -10 19 20 19 20 49 -9 27 -26
41 -31 109 -37 72 -6 79 -9 92 -34 17 -33 33 -40 90 -40 26 0 47 -5 52 -13 4
-8 16 -16 26 -20 9 -4 20 -20 23 -36 5 -22 15 -33 36 -40 42 -15 65 1 78 52 6
23 15 52 20 65 12 28 53 46 58 26 2 -8 8 -14 14 -14 5 0 21 -9 35 -20 17 -13
33 -17 54 -13 21 4 29 2 29 -9 0 -8 22 -30 49 -48 27 -19 57 -47 66 -63 15
-26 22 -29 52 -24 38 7 23 16 246 -155 95 -73 104 -76 136 -37 25 29 28 30 56
18 17 -8 33 -17 36 -21 7 -11 89 -12 179 -4 41 4 94 8 117 9 32 2 51 10 75 33
31 28 38 31 102 29 54 -1 71 -5 82 -19 10 -15 21 -17 49 -12 32 6 39 3 66 -25
22 -23 29 -39 25 -55 -4 -13 1 -31 13 -45 14 -18 20 -46 23 -111 2 -47 9 -92
15 -100 6 -7 13 -38 15 -68 2 -31 12 -71 21 -89 9 -19 17 -48 17 -65 0 -17 12
-49 25 -71 14 -22 25 -55 25 -73 0 -47 28 -101 63 -122 26 -16 62 -77 71 -119
2 -9 10 -33 20 -53 9 -21 16 -48 16 -61 0 -16 10 -28 33 -40 126 -65 177 -100
177 -122 0 -19 -29 -39 -58 -40 -22 0 -26 -4 -24 -22 2 -15 -5 -27 -22 -39
-15 -9 -26 -25 -26 -35 0 -10 -9 -42 -20 -70 -16 -41 -19 -58 -11 -80 8 -23 6
-39 -10 -74 -22 -49 -34 -175 -20 -203 34 -65 44 -102 31 -117 -8 -9 -21 -13
-35 -9 -19 5 -24 1 -27 -18 -2 -13 -14 -28 -29 -35 -33 -16 -53 -39 -44 -53 3
-5 30 -10 60 -10 60 0 72 -9 53 -40 -18 -28 -44 -34 -70 -16 -22 16 -48 7 -48
-16 0 -5 -9 -21 -20 -35 -11 -14 -20 -32 -20 -40 0 -22 42 -32 65 -17 18 12
24 11 43 -2 28 -19 28 -32 0 -61 -20 -22 -22 -22 -40 -6 -18 16 -21 16 -46 1
-31 -19 -40 -38 -18 -38 20 0 37 -40 24 -57 -10 -13 -47 -14 -49 -1 -1 4 -3
13 -4 18 -1 6 -3 12 -4 15 -3 12 -41 -17 -41 -31 0 -8 5 -12 10 -9 6 4 19 -4
30 -17 16 -20 17 -26 5 -44 -11 -17 -11 -24 3 -47 19 -31 41 -42 56 -27 19 19
36 11 36 -18 0 -41 -10 -46 -38 -20 -17 16 -26 19 -29 10 -3 -7 -14 -17 -25
-23 -17 -9 -24 -7 -42 16 l-22 27 -12 -41 c-7 -22 -17 -41 -22 -41 -6 0 -10
-12 -10 -27 l1 -28 16 30 c12 22 18 26 21 15 3 -8 13 -21 24 -28 25 -18 23
-70 -4 -100 -13 -13 -30 -44 -38 -70 -10 -30 -21 -46 -29 -44 -8 2 -36 -6 -63
-18 -48 -20 -51 -21 -76 -4 -39 25 -46 34 -69 84 -33 71 -35 86 -19 141 9 29
16 72 16 96 0 44 17 88 51 132 11 13 19 31 19 41 0 10 16 49 36 89 21 42 34
82 32 98 -1 16 1 59 6 96 6 54 14 76 42 112 41 54 45 85 11 85 -47 0 -60 75
-27 149 24 52 28 149 6 157 -28 11 -38 57 -21 96 17 42 10 72 -25 101 -20 17
-21 20 -6 36 22 24 39 127 25 152 -5 11 -16 19 -24 19 -8 0 -15 7 -15 15 0 8
4 15 9 15 5 0 21 23 34 52 20 42 23 57 15 78 -13 31 -10 184 4 189 5 2 -3 16
-17 31 -25 26 -26 32 -16 61 17 50 15 72 -9 66 -10 -3 -25 1 -31 9 -6 8 -17
11 -23 6 -17 -12 -37 -8 -84 16 -53 28 -54 48 -2 56 91 14 67 125 -37 165 -18
7 -44 28 -58 47 -16 21 -31 31 -40 28 -9 -4 -15 0 -15 10 0 9 4 16 9 16 5 0
13 10 17 22 10 32 -21 52 -50 32 -12 -7 -49 -19 -82 -25 -38 -8 -65 -19 -77
-33 -16 -20 -18 -20 -31 -3 -18 23 -60 22 -77 -3 -14 -20 -15 -20 -48 -3 -18
10 -40 30 -49 45 -16 26 -15 29 13 58 28 29 28 30 10 50 -10 11 -31 20 -47 20
-16 0 -45 7 -65 15 -19 8 -46 15 -59 15 -14 0 -32 4 -42 9 -34 17 -118 33
-197 36 -46 2 -81 8 -83 14 -2 6 -26 11 -53 11 -45 0 -52 4 -100 50 -28 28
-60 50 -70 50 -11 0 -28 5 -39 12 -15 10 -22 9 -38 -5 -22 -20 -66 -21 -162
-5 -57 10 -80 20 -127 56 -52 39 -62 43 -99 38 -23 -3 -57 -13 -76 -22 -34
-16 -36 -16 -99 18 -35 19 -77 38 -92 42 -15 3 -41 19 -57 34 -16 15 -37 35
-47 44 -10 9 -24 24 -31 32 -7 9 -17 16 -22 16 -15 0 -12 -144 2 -158 9 -9 9
-12 0 -12 -9 0 -12 -63 -12 -255 l0 -254 34 -6 c19 -4 43 -4 55 0 13 4 27 -1
40 -14 21 -21 21 -21 41 -1 11 11 29 20 39 20 11 0 23 5 26 10 3 6 26 10 51
10 37 0 44 -3 44 -19 0 -42 11 -51 60 -51 44 0 49 -2 60 -31 11 -26 11 -35 -3
-59 -10 -15 -17 -35 -17 -43 0 -25 104 -37 156 -17 18 7 45 7 87 0 45 -9 67
-8 89 1 28 12 31 10 78 -39 44 -46 48 -55 40 -78 -16 -41 -13 -49 38 -103 32
-34 54 -50 64 -46 9 4 18 0 21 -9 3 -8 -1 -17 -9 -20 -8 -3 -14 -16 -14 -29 0
-14 -7 -30 -15 -37 -17 -14 -20 -36 -5 -45 15 -9 90 14 90 28 -1 7 -7 30 -15
52 -8 21 -13 40 -12 41 1 1 12 7 25 13 26 14 42 7 42 -17 0 -10 6 -27 14 -38
11 -16 12 -30 5 -63 -14 -62 -9 -110 13 -117 22 -7 68 -72 68 -96 0 -25 -47
-55 -63 -39 -17 17 -34 13 -40 -8 -5 -22 19 -37 37 -23 16 13 52 20 64 13 6
-3 14 -19 17 -34 6 -23 4 -29 -13 -34 -25 -6 -31 -41 -18 -95 12 -46 -4 -68
-49 -68 -30 0 -85 -32 -85 -49 0 -5 22 -22 50 -39 38 -24 57 -30 83 -25 23 3
37 0 46 -11 7 -9 22 -16 33 -16 13 0 24 -11 31 -29 6 -16 19 -32 28 -34 10 -3
25 -21 33 -41 13 -30 21 -37 55 -42 40 -6 54 -25 30 -40 -12 -7 37 -53 59 -54
30 -1 52 -40 52 -91 0 -46 21 -96 50 -119 23 -18 60 -105 69 -160 15 -94 46
-209 59 -222 7 -7 12 -25 12 -42 0 -43 22 -98 48 -121 28 -24 21 -52 -14 -61
-33 -8 -30 -21 11 -45 38 -23 47 -57 19 -79 -12 -11 -21 -10 -52 8 -32 19 -37
26 -37 59 0 38 0 38 -39 35 -23 -2 -45 3 -55 11 -9 8 -26 18 -38 21 -13 4 -23
12 -23 18 0 7 5 6 14 -1 11 -9 18 -6 35 15 25 32 26 40 5 48 -42 16 -143 -9
-173 -43 -14 -17 -21 -18 -60 -7 -55 14 -68 33 -50 72 11 22 22 30 47 32 22 2
34 -2 38 -12 3 -9 12 -16 19 -16 14 0 28 27 20 40 -2 4 17 3 43 -1 56 -11 72
-6 72 20 0 14 -8 21 -27 23 -24 3 -28 8 -28 36 -1 23 -9 40 -33 61 -18 17 -32
34 -32 39 0 5 -13 12 -30 16 -36 7 -38 26 -8 67 21 27 21 30 5 46 -16 16 -18
16 -31 -2 -12 -17 -17 -17 -47 -5 -45 17 -59 36 -59 78 0 25 -5 35 -20 39 -24
6 -25 31 -3 78 17 35 17 35 35 15 18 -20 38 -19 38 1 0 5 -10 18 -23 29 -20
18 -23 28 -22 98 1 43 5 83 8 89 10 16 -3 23 -47 23 -47 0 -70 -20 -81 -70
-10 -44 -43 -58 -88 -37 -18 9 -52 19 -75 23 -38 6 -41 5 -48 -19 -6 -26 14
-87 28 -87 4 0 5 -13 2 -30 -6 -25 -3 -30 13 -30 24 0 43 19 43 42 0 22 23 24
40 3 7 -8 17 -12 22 -9 12 8 49 -26 42 -37 -3 -5 -14 -9 -25 -9 -10 0 -19 -6
-19 -13 0 -23 -35 -37 -61 -23 -37 18 -51 14 -65 -20 -11 -26 -10 -35 3 -54
15 -22 43 -24 84 -6 20 9 69 -36 69 -63 0 -22 -58 -41 -69 -22 -4 6 -18 12
-31 13 -23 3 -26 -1 -32 -47 -4 -27 -10 -66 -14 -87 -5 -30 -3 -38 15 -47 21
-12 29 -41 11 -41 -5 0 -10 -6 -10 -14 0 -7 -8 -24 -19 -37 -10 -13 -16 -29
-14 -35 2 -6 -4 -17 -13 -25 -16 -13 -17 -11 -12 14 4 18 0 34 -11 44 -9 9
-16 33 -16 52 0 35 -2 36 -49 48 -45 11 -60 21 -69 48 -2 5 -12 2 -21 -8 -23
-22 -14 -67 14 -74 11 -3 20 -9 20 -14 0 -12 55 -39 80 -39 16 0 20 -6 20 -29
0 -25 -6 -32 -35 -42 -22 -8 -40 -24 -48 -41 -6 -15 -15 -28 -19 -28 -3 0 -23
-23 -43 -50 -22 -30 -44 -50 -56 -50 -11 0 -24 -11 -31 -25 -17 -38 -29 -30
-22 14 6 35 4 40 -25 57 -18 10 -35 32 -42 51 -12 37 -20 40 -39 18 -11 -13
-9 -23 8 -59 12 -24 22 -50 22 -59 0 -9 7 -20 16 -25 24 -13 14 -56 -13 -60
-17 -3 -24 3 -29 22 -6 27 -35 40 -70 34 -16 -3 -19 3 -19 40 0 48 -18 67 -48
50 -34 -18 -65 -1 -78 42 -19 62 -31 52 -44 -33 -4 -25 -16 -54 -26 -63 -10
-9 -19 -24 -19 -31 0 -23 60 -101 82 -106 18 -5 19 -2 13 26 -11 56 -11 92 2
92 6 0 26 -27 44 -59 l31 -60 -21 -17 c-11 -9 -21 -21 -21 -25 0 -4 -12 -22
-26 -41 -23 -30 -30 -33 -57 -28 -18 4 -36 12 -42 19 -5 7 -24 15 -41 19 -18
3 -43 9 -57 12 -20 5 -27 2 -32 -15 -9 -28 11 -50 47 -50 16 0 46 -10 67 -22
36 -21 79 -20 66 2 -3 5 -1 10 5 10 7 0 10 -6 8 -12 -3 -7 4 -21 14 -32 43
-46 12 -57 -88 -31 -31 8 -61 12 -65 9 -5 -3 -9 -21 -9 -41 0 -34 -1 -35 -31
-29 -17 3 -35 6 -40 6 -5 0 -6 6 -3 14 3 8 1 17 -5 21 -6 3 -11 26 -11 51 0
48 -17 57 -52 30 -24 -18 -26 -141 -3 -150 19 -7 19 -30 0 -50 -21 -21 -21
-156 0 -156 17 0 39 -36 30 -50 -3 -6 -15 -10 -26 -10 -14 0 -19 -7 -19 -25 0
-25 1 -26 52 -19 29 4 55 11 56 15 2 5 15 9 28 9 14 0 27 7 30 15 4 8 18 15
34 15 26 0 28 -3 26 -37 -1 -32 4 -40 33 -60 35 -23 61 -18 61 12 0 14 27 28
40 20 5 -3 12 -1 15 5 9 15 -14 40 -37 40 -16 0 -18 4 -12 23 18 58 47 75 102
60 20 -5 23 -11 20 -40 -6 -47 19 -67 82 -66 33 0 50 -4 50 -12 0 -12 -41 -35
-62 -35 -18 0 -37 -33 -38 -63 0 -70 -50 -92 -70 -32 -13 40 -35 46 -44 13
-12 -46 -6 -79 18 -101 14 -13 26 -36 28 -53 2 -24 0 -28 -17 -26 -10 2 -24
11 -30 19 -11 14 -12 14 -18 -1 -4 -9 -10 -16 -14 -16 -9 0 -28 42 -37 83 -7
31 -31 46 -48 29 -6 -6 -12 -27 -13 -46 -1 -19 -12 -50 -23 -68 -19 -30 -20
-35 -6 -48 14 -13 17 -13 34 8 23 28 60 30 60 2 0 -11 -9 -29 -20 -40 -26 -26
-25 -29 10 -41 29 -11 30 -13 30 -70 0 -32 -4 -59 -10 -59 -11 0 -34 -40 -26
-47 9 -10 32 21 50 67 11 29 30 55 55 72 l38 27 41 -19 c22 -11 47 -29 55 -41
l15 -21 7 24 c8 24 22 38 41 38 14 0 28 -79 19 -102 -5 -13 -13 -14 -37 -7
-55 15 -62 -8 -26 -83 25 -52 45 -67 55 -40 4 9 13 22 21 28 9 6 17 40 22 88
8 80 21 109 41 89 17 -17 30 -83 29 -148 l0 -60 26 29 c22 25 25 36 20 67 l-6
37 55 -1 55 -1 1 -41 c1 -22 5 -51 9 -65 8 -24 8 -24 9 -2 1 12 6 22 12 22 5
0 15 14 21 31 11 33 20 32 23 -3 2 -27 25 -37 26 -11 1 10 6 4 11 -14 6 -18
17 -33 24 -33 7 0 22 -12 33 -28 12 -15 31 -39 44 -53 12 -14 29 -36 37 -48
32 -48 35 -51 58 -45 14 4 21 12 18 20 -6 16 19 44 42 45 60 5 112 3 112 -3 0
-4 14 -27 30 -51 17 -25 30 -50 30 -56 0 -6 11 -11 24 -11 22 0 23 3 19 44 -8
63 3 95 34 107 35 13 55 -7 62 -63 7 -50 29 -60 59 -27 29 30 73 15 87 -29 l9
-32 72 0 c49 0 74 4 77 13 3 9 9 9 26 0 11 -7 34 -13 51 -13 29 0 30 1 30 50
0 45 3 50 25 56 27 7 28 7 25 77 -2 56 19 87 57 87 20 0 23 -5 25 -42 1 -24 1
-52 0 -63 -2 -41 6 -48 34 -26 18 14 41 21 69 21 35 0 44 4 53 25 13 27 31 32
50 13 18 -18 15 -50 -13 -112 -37 -83 -36 -86 38 -86 35 0 68 5 74 11 8 8 13
8 17 0 8 -13 226 -16 226 -3 0 4 -7 17 -15 29 -21 30 -67 172 -60 184 4 5 12
9 20 9 16 0 95 -78 95 -95 0 -5 12 -32 25 -60 14 -27 25 -56 25 -62 0 -10 110
-13 515 -13 434 0 515 2 515 14 0 8 7 16 15 20 10 4 15 -1 15 -14 0 -19 7 -20
124 -20 90 0 126 3 130 13 5 9 7 9 12 0 3 -8 26 -13 60 -13 l54 0 -1 49 c-1
32 4 59 14 75 16 23 16 26 0 35 -19 10 -20 78 -3 95 13 13 13 46 0 46 -5 0
-10 -4 -10 -10 0 -5 -7 -7 -15 -4 -16 6 -21 80 -7 99 16 22 32 14 32 -14 0
-28 2 -29 34 -24 28 4 36 1 46 -17 6 -12 9 -28 6 -35 -8 -22 33 -107 47 -98 7
5 32 8 57 8 37 0 45 3 48 20 12 78 37 109 80 99 39 -9 62 -33 60 -61 -3 -34
-31 -55 -80 -60 -24 -2 -49 -6 -55 -8 -18 -6 -16 -35 1 -35 8 0 21 -12 28 -27
7 -16 30 -36 51 -46 32 -16 37 -23 37 -53 l0 -34 55 0 c59 0 59 0 55 64 -1 23
7 37 42 67 25 22 37 38 28 39 -9 0 -11 3 -5 8 34 25 59 122 35 137 -13 8 -13
85 1 85 6 0 19 -5 30 -11 25 -13 48 12 49 53 0 31 -55 113 -82 123 -20 7 -24
57 -8 99 14 37 48 35 61 -3 6 -16 17 -32 24 -35 8 -3 17 -22 21 -43 4 -21 22
-56 41 -79 27 -33 33 -50 33 -87 0 -45 1 -46 38 -54 54 -11 139 -10 152 3 6 6
14 30 19 55 5 24 9 33 10 20 1 -13 15 -39 31 -58 34 -38 37 -54 14 -88 -8 -13
-14 -29 -13 -37 2 -7 -1 -24 -5 -37 -5 -13 -4 -27 2 -33 11 -11 5 -64 -8 -83
-4 -5 -10 -22 -14 -37 -3 -16 -13 -28 -21 -28 -23 0 -65 -22 -59 -31 3 -5 37
-9 76 -9 63 0 69 2 62 17 -4 10 -9 37 -12 60 -3 36 0 46 27 74 29 30 31 36 25
83 -4 28 -10 60 -14 72 -5 11 -5 27 0 35 4 7 11 31 14 53 7 38 8 38 45 32 38
-6 39 -5 55 39 18 46 16 55 -16 91 -19 22 -19 22 3 73 17 42 25 50 40 46 15
-5 19 -1 19 21 0 15 -8 37 -19 48 -10 12 -21 43 -24 73 -6 51 -5 53 20 59 20
5 31 2 45 -16 10 -12 18 -28 18 -35 0 -8 9 -17 20 -20 16 -5 20 -15 20 -54 0
-45 2 -49 45 -79 49 -34 65 -34 85 4 15 28 36 31 68 8 19 -13 28 -14 53 -4 16
7 35 20 42 30 7 9 22 22 35 29 22 12 32 61 12 61 -5 0 -10 16 -10 35 0 19 4
35 9 35 12 0 34 67 26 80 -11 17 -33 11 -40 -11 -4 -11 -10 -18 -13 -14 -10
10 -12 195 -2 195 5 0 12 9 15 20 3 11 15 20 26 20 11 0 29 16 44 40 l26 41
44 -31 c25 -17 50 -27 59 -24 20 8 36 63 24 86 -5 10 -3 27 4 43 10 22 8 30
-9 53 -22 30 -41 37 -62 23 -17 -11 -19 -73 -3 -79 7 -2 12 -11 12 -19 0 -13
-9 -15 -52 -10 -29 3 -48 4 -41 1 17 -8 4 -34 -17 -34 -21 0 -70 -54 -70 -78
-1 -21 -25 -54 -33 -45 -4 3 -7 -3 -7 -15 0 -12 -11 -32 -25 -44 -31 -27 -31
-33 -1 -61 36 -32 41 -63 17 -84 -20 -17 -29 -52 -13 -54 4 0 17 -2 29 -3 13
-2 26 -5 29 -9 16 -15 -3 -117 -21 -117 -21 0 -65 40 -65 59 0 26 -32 51 -74
58 -34 5 -36 4 -36 -21 0 -15 -5 -37 -11 -49 l-12 -21 -8 23 c-6 13 -5 30 2
42 6 11 8 25 6 32 -2 7 7 25 19 40 28 33 30 52 8 61 -15 6 -15 8 0 25 9 10 31
21 48 25 30 6 30 7 24 49 -16 102 -31 150 -53 164 -13 9 -21 19 -18 23 3 5 -5
16 -17 24 -21 15 -21 15 -3 56 17 38 17 42 2 57 -15 15 -17 14 -26 -10 -12
-31 -38 -27 -51 7 -6 17 -9 14 -15 -22 -4 -28 -3 -48 5 -56 11 -15 -2 -32 -18
-22 -12 7 -13 108 -1 122 9 11 8 22 -1 44 -10 25 -10 35 4 64 27 58 16 91 -27
81 -20 -5 -28 -15 -33 -41 -7 -37 -32 -58 -58 -48 -9 3 -16 14 -16 24 0 24
-42 50 -69 43 -18 -5 -21 -10 -16 -32 4 -14 16 -36 28 -49 22 -23 20 -29 -18
-46 -5 -3 0 -14 13 -24 28 -26 30 -72 3 -72 -38 0 -66 51 -41 76 6 6 4 24 -5
50 -7 22 -12 63 -10 90 2 35 -3 63 -20 99 -13 28 -26 65 -30 82 -8 38 -22 43
-34 11 -8 -22 -112 -69 -156 -71 -28 -1 -31 -9 -27 -62 3 -38 8 -48 28 -55 32
-13 40 -35 21 -63 -19 -29 -52 -29 -93 0 -37 26 -54 16 -54 -33 0 -37 -24 -64
-34 -38 -21 55 14 171 65 213 l22 17 -21 40 c-12 21 -24 55 -27 75 -3 20 -14
44 -24 53 -17 15 -20 15 -55 -9 -20 -14 -41 -25 -47 -25 -5 0 -17 17 -26 37
-11 28 -12 42 -4 55 8 14 6 20 -11 33 -13 8 -18 15 -12 15 11 0 34 42 34 60 0
5 -14 23 -30 40 -17 17 -28 35 -25 40 3 5 -12 21 -35 35 -22 14 -40 32 -40 40
0 8 -15 31 -32 51 -30 33 -33 43 -31 92 1 31 8 69 14 85 11 27 10 32 -8 47
-17 13 -23 33 -29 91 -7 74 -36 159 -55 159 -19 0 -21 31 -4 50 16 18 17 24 5
60 -7 22 -16 40 -19 41 -56 10 -82 6 -95 -13 -20 -28 -9 -48 26 -48 21 0 27
-4 22 -12 -5 -7 -9 -30 -10 -51 -2 -45 -6 -51 -31 -43 -12 4 -23 23 -31 51 -7
25 -17 45 -24 45 -7 0 -32 19 -56 42 -34 35 -45 40 -52 28 -5 -8 -7 -17 -4
-21 4 -8 -14 -23 -37 -32 -24 -8 -40 6 -49 46 -10 46 6 62 54 53 31 -6 34 -4
29 13 -3 11 -11 22 -18 25 -7 2 -16 18 -20 34 -8 37 -24 44 -63 30 -34 -13
-77 0 -123 40 -24 19 -29 32 -29 66 0 29 -6 48 -17 58 -26 21 -125 56 -181 64
-39 5 -51 11 -64 35 -10 17 -22 27 -31 23 -8 -3 -27 6 -43 19 -29 24 -67 47
-78 47 -12 0 -5 -23 13 -46 16 -20 18 -30 10 -54 -8 -23 -6 -38 10 -76 12 -25
21 -48 21 -49 0 -7 -60 -24 -99 -28 -30 -4 -60 1 -94 14 -50 20 -51 20 -70 0
-20 -19 -20 -19 -44 10 -14 16 -31 29 -39 29 -8 0 -19 12 -25 27 -8 22 -6 30
16 53 22 23 26 36 28 108 3 82 20 122 52 122 7 0 18 6 24 14 6 7 35 17 63 20
43 6 56 4 79 -13 36 -26 36 -26 44 7 3 15 15 46 27 70 14 31 18 52 13 75 -8
38 -8 108 1 116 3 3 16 -6 29 -21 31 -36 51 -35 64 3 15 44 15 45 -19 76 -18
16 -30 36 -30 52 0 14 -11 36 -24 50 -26 28 -76 120 -76 141 0 7 -9 28 -21 46
-19 31 -19 35 -4 64 9 18 21 55 26 83 6 29 13 64 16 79 8 40 -4 75 -26 81 -11
2 -28 22 -39 43 -11 22 -30 45 -42 52 -15 9 -19 19 -15 32 4 11 3 29 0 40 -8
27 -34 19 -74 -21 -16 -16 -37 -29 -45 -29 -9 0 -25 -6 -37 -12 -17 -11 -22
-10 -39 12 -31 40 -24 68 15 60 5 -1 15 6 21 15 7 9 18 15 26 14 37 -5 59 3
67 24 5 12 23 31 40 42 17 11 31 25 31 30 0 6 9 -1 19 -14 l19 -24 27 21 c36
29 44 28 56 -7 12 -34 39 -48 54 -28 14 19 50 37 73 37 18 0 20 7 18 73 l-1
72 32 1 c18 1 39 7 48 14 17 14 20 51 6 65 -5 6 -11 21 -13 34 -1 13 -10 29
-20 34 -23 15 -88 -35 -88 -67 0 -54 -58 -76 -70 -26 -5 22 -12 25 -51 28 -60
4 -78 -15 -61 -62 17 -47 15 -55 -15 -67 -19 -7 -35 -7 -54 1 -21 9 -31 9 -45
-4 -90 -73 -115 -86 -162 -86 -26 0 -58 3 -70 7 -25 6 -25 11 -7 84 5 20 -1
34 -29 68 -20 24 -36 49 -36 56 0 7 -7 18 -15 25 -8 7 -15 23 -15 35 0 13 -3
31 -6 40 -8 21 -53 43 -84 41 -46 -3 -150 -41 -150 -54 0 -7 -4 -11 -10 -7 -6
4 -6 15 0 31 6 14 10 36 10 49 0 20 -6 24 -37 27 l-38 3 3 46 c3 56 -10 69
-71 71 -37 0 -51 6 -72 29 -31 36 -43 36 -72 2 l-23 -28 -20 25 c-24 31 -28
105 -5 114 24 9 18 45 -10 58 -14 6 -25 15 -25 19 0 4 -16 22 -35 41 -29 27
-35 39 -33 67 3 33 1 35 -37 43 -22 5 -56 8 -75 6 -39 -3 -56 -29 -67 -96 -7
-43 -23 -62 -52 -62 -28 0 -38 42 -17 72 11 15 16 44 16 90 0 66 1 67 38 95
20 15 43 34 51 42 10 9 27 11 55 6 48 -7 222 -81 251 -105 11 -10 25 -19 32
-21 12 -4 151 -129 223 -200 20 -20 48 -39 63 -43 15 -3 33 -19 41 -34 19 -37
88 -91 126 -98 17 -4 35 -15 41 -25 5 -11 21 -19 35 -19 13 0 41 -7 60 -15 20
-8 47 -12 60 -9 17 4 31 0 44 -11 14 -13 23 -15 32 -7 16 12 143 18 180 8 15
-5 35 -3 47 3 33 18 165 31 201 21 23 -7 43 -5 74 7 22 8 50 15 61 15 54 -3
177 -11 230 -17 55 -5 66 -3 130 30 39 19 82 35 96 35 14 0 34 9 44 20 10 11
22 20 27 20 18 0 86 52 98 75 7 14 26 30 42 37 27 12 42 31 123 157 89 137
174 221 226 221 9 0 19 6 22 13 2 7 30 23 62 36 50 21 65 23 114 15 51 -8 57
-12 66 -41 6 -17 18 -40 28 -50 9 -11 21 -40 26 -66 4 -26 17 -59 27 -74 17
-26 19 -48 17 -258 -1 -226 -15 -373 -37 -387 -7 -5 -12 -59 -13 -145 -1 -76
-2 -150 -3 -165 0 -16 -13 -42 -31 -63 -31 -35 -32 -36 -24 -118 10 -123 6
-120 139 -114 62 3 122 9 133 15 22 12 32 7 56 -30 15 -25 20 -26 42 -16 14 6
25 19 25 28 0 25 26 44 47 35 10 -4 50 -9 90 -10 39 -1 85 -7 101 -14 21 -9
36 -10 49 -2 24 12 129 3 165 -15 15 -8 33 -11 41 -8 10 3 14 -4 15 -28 2 -35
-15 -88 -28 -88 -10 0 -54 -39 -49 -44 21 -18 61 -23 164 -20 107 2 245 15
300 28 11 3 32 7 48 11 l27 5 -2 598 c-3 589 -3 597 -23 597 -30 0 -47 15 -42
37 3 11 0 21 -9 25 -8 3 -13 12 -10 20 7 16 -28 53 -50 53 -19 0 -53 39 -54
61 0 8 -6 23 -13 34 -13 17 -15 17 -36 -4 -22 -22 -23 -39 -5 -102 3 -11 -6
-21 -27 -29 -19 -8 -35 -24 -41 -42 -7 -19 -14 -26 -20 -20 -6 6 -20 6 -38 -1
-22 -9 -31 -7 -45 6 -18 18 -13 37 10 37 23 0 65 22 65 34 0 13 -85 66 -106
66 -8 0 -17 -8 -20 -17 -18 -56 -28 -73 -43 -73 -23 1 -58 31 -66 58 -6 20 -3
22 25 22 23 0 33 5 37 20 3 11 12 20 19 20 8 0 14 4 14 9 0 5 8 7 18 4 19 -5
72 53 72 77 0 7 6 10 14 7 10 -4 16 2 19 16 l4 22 2 -22 c1 -31 17 -29 23 1 8
40 -6 52 -33 27 -20 -18 -24 -19 -32 -6 -4 8 -5 20 -2 26 4 5 0 21 -9 34 -20
31 -20 51 0 59 25 9 14 60 -13 64 -18 3 -23 -2 -24 -20 -3 -57 -9 -82 -22 -90
-10 -5 -15 -25 -15 -55 0 -62 -4 -77 -22 -85 -40 -18 -70 7 -70 57 0 36 -13
46 -46 34 -18 -6 -21 -4 -19 14 1 12 3 29 4 37 1 12 4 12 15 -2 15 -20 51 -24
61 -7 4 6 17 14 29 19 18 8 19 9 2 9 -14 1 -16 4 -7 14 8 11 6 18 -9 32 -24
21 -26 45 -5 45 8 0 22 11 31 24 8 14 25 26 37 28 17 2 23 11 25 36 4 41 -20
72 -56 72 -21 0 -23 3 -18 27 10 37 64 113 81 113 11 0 15 13 15 50 0 28 -4
50 -10 50 -5 0 -10 -7 -10 -15 0 -9 -11 -21 -25 -27 -22 -10 -41 -34 -81 -101
-24 -39 -33 -42 -59 -17 -14 13 -25 19 -25 14 0 -5 -4 -3 -9 5 -7 11 -13 12
-23 4 -33 -27 -87 37 -59 71 9 10 8 16 -4 26 -11 9 -12 16 -5 25 5 6 7 15 3
18 -3 4 -6 23 -5 42 l1 35 -799 0 c-726 0 -800 -1 -800 -16z m1474 -45 c13
-12 26 -19 29 -18 6 6 37 -22 37 -32 0 -5 -11 -14 -25 -19 -14 -5 -25 -14 -25
-20 0 -5 -10 -10 -23 -10 -13 0 -52 -11 -87 -25 -35 -14 -71 -25 -80 -25 -9 0
-22 11 -28 25 -6 14 -18 25 -27 25 -8 0 -15 4 -15 8 0 11 45 32 68 32 22 0
124 65 115 73 -17 18 40 4 61 -14z m206 -189 c0 -5 -2 -10 -4 -10 -3 0 -8 5
-11 10 -3 6 -1 10 4 10 6 0 11 -4 11 -10z m41 -46 c14 -14 37 -26 50 -27 29
-2 48 -24 49 -54 0 -27 2 -27 -44 -8 -41 17 -56 13 -56 -15 0 -10 -4 -22 -10
-25 -6 -3 -10 4 -10 16 0 12 -8 27 -17 34 -16 12 -28 79 -17 96 9 15 27 10 55
-17z m-241 -34 c0 -19 -18 -19 -23 -1 -3 14 -1 18 9 14 8 -3 14 -9 14 -13z
m-5136 -572 c-3 -4 -15 -3 -27 4 -21 11 -21 11 -2 18 20 7 38 -7 29 -22z
m5772 -108 c17 0 18 -14 1 -28 -17 -14 -32 -3 -40 30 -5 17 -3 28 6 31 6 2 13
-4 15 -15 2 -10 10 -18 18 -18z m-304 19 l46 2 4 -63 c2 -35 0 -72 -6 -83 -9
-19 -9 -19 -20 0 -26 46 -74 85 -105 85 -29 0 -31 2 -31 36 0 35 1 35 33 28
17 -4 53 -6 79 -5z m-5772 -21 c11 -12 20 -25 20 -30 0 -4 3 -7 8 -6 4 1 22
-3 40 -10 26 -9 33 -16 30 -34 -4 -27 -37 -37 -52 -16 -17 23 -51 37 -74 31
-17 -4 -24 1 -32 22 -22 58 18 87 60 43z m190 -37 c0 -12 -29 -41 -41 -41 -24
0 4 49 29 50 6 0 12 -4 12 -9z m1798 -3 c28 -28 -3 -83 -32 -59 -11 10 -12 19
-4 42 11 32 18 35 36 17z m232 -23 c16 -20 5 -45 -20 -45 -11 0 -20 3 -20 8 0
4 -3 17 -6 30 -5 17 -2 22 14 22 11 0 25 -7 32 -15z m-2040 -81 c0 -8 -4 -12
-10 -9 -5 3 -10 10 -10 16 0 5 5 9 10 9 6 0 10 -7 10 -16z m60 -74 c0 -33 -22
-54 -48 -46 -27 9 -22 50 7 54 14 2 21 9 17 17 -3 9 0 12 10 8 7 -3 14 -18 14
-33z m-160 -8 c20 -16 21 -21 9 -65 -10 -42 -14 -47 -33 -41 -11 4 -21 7 -22
8 0 0 -8 13 -17 28 -24 38 -22 67 6 78 31 12 32 12 57 -8z m1926 -23 c7 -11
-22 -47 -30 -38 -8 7 5 49 15 49 4 0 11 -5 15 -11z m-2022 -275 c7 -17 0 -34
-13 -34 -5 0 -8 11 -8 25 0 28 12 33 21 9z m876 -154 c0 -5 -5 -10 -11 -10 -5
0 -7 5 -4 10 3 6 8 10 11 10 2 0 4 -4 4 -10z m430 -214 c0 -11 -19 -15 -25 -6
-3 5 1 10 9 10 9 0 16 -2 16 -4z m-370 -861 c6 -8 10 -29 8 -47 -4 -47 -30
-43 -40 7 -5 22 -15 43 -23 48 -8 4 -15 12 -15 17 0 12 56 -8 70 -25z m3238
-1078 c4 -18 -23 -57 -40 -57 -9 0 -11 41 -2 65 8 21 38 15 42 -8z m123 -29
c9 -34 -7 -37 -39 -9 -30 25 -28 43 5 39 19 -2 29 -10 34 -30z m-159 -156 c7
-10 27 -29 45 -42 42 -31 51 -70 24 -113 -20 -33 -20 -33 -1 -50 25 -21 25
-37 0 -37 -22 0 -39 25 -33 50 2 9 -12 38 -32 64 -26 35 -33 51 -26 63 6 11 4
24 -6 39 -24 37 3 61 29 26z m-242 -60 c10 -7 -26 -22 -52 -22 -32 0 -38 23
-11 38 15 9 31 5 63 -16z m-2726 -88 c12 -31 -3 -58 -27 -48 -25 9 -23 64 2
64 10 0 22 -7 25 -16z m1336 0 c0 -9 -5 -14 -12 -12 -18 6 -21 28 -4 28 9 0
16 -7 16 -16z m1413 -54 c3 -12 -1 -26 -9 -33 -8 -7 -24 -21 -34 -31 -20 -20
-20 -20 -20 3 0 24 35 81 50 81 4 0 10 -9 13 -20z m-300 -66 c-8 -21 -27 -12
-31 15 -3 20 -1 21 17 12 12 -7 18 -17 14 -27z m-154 -84 c-1 -31 3 -65 8 -76
21 -40 -13 -60 -49 -27 -10 9 -18 28 -18 43 0 15 -7 33 -15 40 -11 9 -13 16
-5 24 5 5 10 17 10 25 0 8 10 25 22 38 21 23 23 23 35 7 7 -10 12 -42 12 -74z
m-199 28 c45 -49 49 -57 50 -104 0 -38 5 -56 20 -69 10 -9 19 -20 18 -24 -4
-36 5 -54 32 -64 31 -12 40 -27 16 -27 -18 0 -28 -40 -31 -115 -1 -42 -8 -70
-23 -95 -12 -19 -22 -51 -22 -71 0 -30 -7 -43 -39 -72 -22 -20 -55 -44 -73
-53 -18 -9 -36 -22 -40 -28 -12 -18 -9 -66 6 -94 8 -15 18 -54 23 -87 7 -52
11 -60 31 -63 16 -2 28 -16 39 -40 8 -20 22 -49 29 -64 8 -14 14 -44 14 -65 0
-21 9 -56 20 -78 28 -54 25 -68 -16 -105 -47 -41 -75 -51 -130 -46 -41 3 -44
2 -44 -20 0 -13 -5 -24 -11 -24 -6 0 -9 6 -6 14 7 18 -12 86 -30 107 -25 30
-27 75 -4 98 21 21 27 56 13 78 -13 20 -50 3 -66 -30 -40 -86 -47 -113 -36
-141 15 -40 14 -41 -33 -44 l-43 -1 6 62 c4 34 13 72 20 83 15 25 8 52 -17 61
-10 4 -32 22 -49 40 -26 27 -39 33 -72 33 -33 0 -40 -3 -36 -15 4 -10 0 -15
-15 -15 -12 0 -21 5 -21 10 0 6 4 10 9 10 5 0 11 33 14 73 3 39 14 104 25 142
19 69 19 70 0 102 -16 26 -17 35 -6 52 6 11 21 22 32 25 16 4 18 8 9 17 -9 9
-23 9 -55 1 -78 -19 -178 22 -178 73 0 37 18 46 54 26 30 -17 179 -35 191 -23
10 10 -18 32 -41 32 -35 0 -30 26 6 34 24 4 30 11 30 31 0 21 5 25 29 25 16 0
34 6 40 14 6 7 25 16 41 20 41 8 38 33 -10 80 -22 22 -40 43 -40 47 0 16 21
20 36 8 12 -10 20 -7 43 15 22 21 32 43 40 88 12 70 40 119 84 150 18 12 47
34 65 50 18 15 37 28 43 28 6 0 32 -24 59 -52z m-2040 9 c0 -15 11 -29 30 -40
17 -10 30 -22 30 -27 0 -17 -43 -50 -65 -50 -45 0 -57 40 -30 104 17 41 35 47
35 13z m-130 -22 c0 -24 -24 -44 -37 -31 -8 7 17 56 29 56 4 0 8 -11 8 -25z
m3134 -39 c-4 -10 -16 -13 -39 -9 -37 6 -51 -8 -35 -37 8 -16 6 -24 -10 -40
-27 -27 -26 -56 4 -67 20 -7 22 -11 14 -33 l-9 -25 -18 21 c-12 15 -34 23 -76
29 -77 9 -85 13 -85 39 0 31 19 46 56 46 29 0 33 4 40 38 4 20 8 40 9 45 2 4
3 14 4 22 1 11 13 15 45 15 25 0 48 5 52 12 10 15 55 -38 48 -56z m-676 -88
c-7 -19 -38 -22 -38 -4 0 10 9 16 21 16 12 0 19 -5 17 -12z m-2506 -15 c22
-20 23 -46 3 -63 -13 -11 -15 -8 -16 14 -2 34 -3 39 -12 54 -12 17 3 15 25 -5z
m2818 7 c0 -5 -6 -10 -14 -10 -8 0 -18 5 -21 10 -3 6 3 10 14 10 12 0 21 -4
21 -10z m-2500 -25 c0 -8 -4 -15 -10 -15 -5 0 -7 7 -4 15 4 8 8 15 10 15 2 0
4 -7 4 -15z m-174 -42 c-11 -11 -19 6 -11 24 8 17 8 17 12 0 3 -10 2 -21 -1
-24z m-165 -23 c10 -6 19 -19 19 -30 0 -10 4 -22 10 -25 6 -3 4 -18 -5 -38 -7
-18 -19 -47 -25 -64 -7 -18 -16 -33 -19 -33 -4 0 -20 13 -35 29 -27 28 -28 30
-16 85 10 49 30 86 46 86 3 0 14 -5 25 -10z m2584 -21 c4 -12 2 -26 -4 -32 -8
-8 -11 -7 -11 5 0 9 -3 23 -6 32 -3 9 -1 16 4 16 6 0 14 -9 17 -21z m-88 -1
c5 -7 15 -31 21 -53 14 -50 0 -71 -39 -56 -46 17 -54 36 -34 81 18 41 35 50
52 28z m-2377 -19 c0 -11 5 -29 11 -40 19 -36 14 -81 -11 -101 -29 -23 -43
-12 -59 45 -11 43 -7 62 23 94 26 28 36 29 36 2z m3043 -43 c51 -65 22 -90
-42 -37 -30 24 -32 30 -22 49 16 31 32 27 64 -12z m-508 -56 c16 -17 16 -20 2
-26 -17 -6 -57 11 -57 26 0 7 15 17 31 19 3 1 14 -8 24 -19z m-775 1 c0 -5 -7
-11 -15 -15 -9 -3 -15 0 -15 9 0 8 7 15 15 15 8 0 15 -4 15 -9z m2138 -36 c7
-86 -27 -118 -46 -43 -9 35 -8 47 4 66 21 32 38 23 42 -23z m-2305 -20 c-4
-15 -36 -12 -41 3 -3 9 3 13 19 10 13 -1 23 -7 22 -13z m-1553 -11 c0 -8 -4
-12 -10 -9 -5 3 -10 10 -10 16 0 5 5 9 10 9 6 0 10 -7 10 -16z m2638 -15 c-2
-6 -8 -10 -13 -10 -5 0 -11 4 -13 10 -2 6 4 11 13 11 9 0 15 -5 13 -11z
m-2234 -26 c-9 -35 -6 -33 -32 -26 -21 5 -30 32 -15 46 3 4 17 7 30 7 20 0 23
-3 17 -27z m-1230 -85 c22 -31 20 -40 -6 -36 -17 2 -24 11 -26 31 -4 33 11 35
32 5z m4178 0 c8 -23 -4 -59 -23 -69 -14 -7 -23 -5 -40 12 l-21 21 23 24 c24
26 55 32 61 12z m468 -38 c0 -17 -34 -29 -53 -19 -22 13 -22 36 1 42 20 4 52
-10 52 -23z m280 1 c14 -3 50 -70 44 -85 -9 -25 -20 -20 -38 18 -9 19 -25 38
-36 41 -11 4 -20 12 -20 19 0 11 17 13 50 7z m-4830 -27 c13 -33 -2 -62 -36
-70 -31 -8 -44 7 -44 52 0 38 6 44 42 44 21 0 31 -6 38 -26z m3960 7 c23 -45
5 -78 -32 -59 -12 6 -18 20 -18 43 0 28 4 35 20 35 10 0 24 -9 30 -19z m-904
1 c6 -4 19 -22 28 -40 16 -30 20 -33 49 -27 18 4 36 11 42 16 33 31 88 -10 83
-62 -2 -27 -11 -38 -51 -63 -43 -26 -50 -28 -73 -16 -13 8 -34 28 -45 46 -19
31 -22 33 -67 28 -26 -3 -60 -1 -76 5 -26 11 -28 14 -21 49 11 57 17 62 105
70 8 1 20 -2 26 -6z m1023 -81 c17 -16 31 -36 31 -45 0 -24 -31 -19 -37 5 -5
17 -11 20 -38 15 -28 -6 -32 -4 -31 14 1 19 21 39 37 40 4 0 21 -13 38 -29z
m451 -35 c0 -3 -4 -8 -10 -11 -5 -3 -10 -1 -10 4 0 6 5 11 10 11 6 0 10 -2 10
-4z m172 -13 c10 -9 18 -22 18 -29 0 -19 -29 -44 -45 -38 -17 7 -56 70 -48 78
12 12 57 6 75 -11z m-2565 1 c-3 -3 -12 -4 -19 -1 -8 3 -5 6 6 6 11 1 17 -2
13 -5z m1888 -24 c21 -23 12 -39 -13 -24 -19 12 -29 44 -14 44 5 0 17 -9 27
-20z m-4365 -45 c7 -8 27 -19 44 -23 42 -11 39 -31 -8 -47 -21 -8 -43 -19 -47
-27 -12 -19 -16 -9 -21 49 -6 65 5 81 32 48z m4645 -25 c0 -7 -8 -18 -18 -24
-25 -15 -51 18 -36 46 9 18 13 18 32 5 12 -8 22 -20 22 -27z m680 30 c23 -9
26 -14 20 -37 -3 -15 -15 -39 -26 -55 -11 -15 -19 -35 -17 -45 2 -12 -3 -18
-17 -18 -18 0 -20 6 -19 67 0 39 6 73 13 82 16 19 13 19 46 6z m-1164 -37 c9
-10 22 -34 28 -54 6 -20 23 -51 36 -69 15 -20 25 -47 25 -67 0 -31 -2 -33 -33
-33 -40 0 -57 15 -57 51 0 14 -8 37 -18 50 -37 50 -51 104 -36 143 7 18 29 10
55 -21z m659 -34 c0 -11 -4 -18 -10 -14 -5 3 -7 12 -3 20 7 21 13 19 13 -6z
m114 -38 c-9 -10 -26 18 -18 30 5 9 9 8 14 -7 4 -10 6 -21 4 -23z m-484 -3 c0
-5 -7 -8 -15 -8 -15 0 -20 21 -8 33 7 7 23 -11 23 -25z m-4490 -28 c4 -17 8
-21 14 -12 4 7 12 10 17 7 13 -9 11 -34 -4 -50 -12 -11 -25 -11 -85 3 -75 17
-89 30 -71 63 9 17 19 20 67 17 51 -3 57 -5 62 -28z m3858 9 c7 -11 16 -42 19
-69 5 -43 2 -53 -20 -79 l-26 -31 -21 29 c-16 24 -19 39 -14 73 12 90 36 119
62 77z m227 -40 c9 -14 -3 -59 -15 -59 -5 0 -12 11 -16 24 -6 26 1 46 16 46 5
0 12 -5 15 -11z m-3985 -53 c0 -20 -11 -46 -19 -46 -6 0 -7 48 -2 58 4 9 21
-1 21 -12z m4852 -30 c-6 -48 -19 -46 -16 2 2 45 2 44 12 38 4 -3 6 -21 4 -40z
m235 -32 c5 -18 -14 -36 -36 -32 -21 3 -21 4 -5 26 15 22 35 25 41 6z m173 12
c0 -3 -4 -8 -10 -11 -5 -3 -10 -1 -10 4 0 6 5 11 10 11 6 0 10 -2 10 -4z m8
-47 c16 -26 5 -40 -25 -33 -19 5 -20 9 -11 30 14 29 19 30 36 3z m-4898 -15
c0 -9 -7 -14 -17 -12 -25 5 -28 28 -4 28 12 0 21 -6 21 -16z m4140 -26 c38
-22 51 -50 30 -63 -5 -3 -10 -15 -10 -25 0 -23 -29 -41 -56 -35 -10 2 -31 6
-45 9 -25 5 -49 41 -49 74 0 20 48 61 73 62 10 0 36 -10 57 -22z m-517 -28
c-3 -10 -14 -26 -24 -36 -18 -16 -19 -16 -19 19 0 34 13 48 36 40 7 -2 10 -13
7 -23z m617 11 c0 -14 -28 -33 -40 -26 -20 12 -10 35 15 35 14 0 25 -4 25 -9z
m425 -2 c4 -6 -2 -21 -14 -33 -12 -12 -21 -30 -21 -40 0 -43 -43 -76 -56 -43
-9 25 14 67 37 67 15 0 19 5 15 15 -12 32 22 62 39 34z m-4625 -42 c0 -7 -7
-22 -15 -33 -14 -18 -14 -17 -15 14 0 22 5 32 15 32 8 0 15 -6 15 -13z m3170
-27 c0 -21 -15 -27 -25 -10 -7 12 2 30 16 30 5 0 9 -9 9 -20z m240 -1 c0 -11
-4 -17 -10 -14 -5 3 -10 13 -10 21 0 8 5 14 10 14 6 0 10 -9 10 -21z m980 12
c0 -18 -18 -21 -30 -6 -10 13 -9 15 9 15 11 0 21 -4 21 -9z m-1496 -73 c3 -13
6 -35 6 -50 0 -23 -4 -28 -25 -28 -34 0 -40 21 -20 64 20 42 30 45 39 14z
m401 -49 c1 -30 6 -64 13 -76 10 -18 10 -29 -3 -59 -8 -20 -12 -46 -9 -59 5
-20 -10 -44 -22 -33 -6 6 -12 260 -6 276 11 30 27 1 27 -49z m1194 17 c42 -22
121 -151 121 -199 0 -58 -50 -52 -70 8 -7 22 -23 41 -40 50 -40 21 -47 19 -59
-15 -5 -16 -15 -30 -20 -30 -6 0 -11 -7 -11 -15 0 -41 -46 9 -56 60 -4 24 -2
46 7 62 11 21 11 27 2 30 -16 6 -17 35 -1 51 17 17 93 15 127 -2z m-1289 -63
c0 -29 -12 -63 -21 -63 -10 0 -12 63 -2 73 12 12 23 7 23 -10z m738 -24 c9
-14 10 -25 4 -31 -15 -15 -32 0 -32 28 0 30 11 31 28 3z m-4138 -74 c16 -20 5
-45 -20 -45 -16 0 -20 7 -20 30 0 33 19 40 40 15z m30 5 c0 -5 -4 -10 -10 -10
-5 0 -10 5 -10 10 0 6 5 10 10 10 6 0 10 -4 10 -10z m2900 -5 c-7 -8 -16 -15
-21 -15 -5 0 -9 7 -9 15 0 9 9 15 21 15 18 0 19 -2 9 -15z m780 -10 c22 -23
22 -25 6 -59 l-17 -35 -32 18 c-26 15 -31 23 -29 47 7 57 35 69 72 29z m-616
-1 c11 -4 16 -19 16 -44 0 -21 7 -54 16 -75 9 -22 13 -49 9 -66 -5 -23 0 -38
23 -70 26 -35 29 -45 21 -72 -5 -18 -9 -33 -9 -35 0 -2 -10 -2 -22 0 -18 2
-28 16 -44 63 -12 33 -38 79 -58 102 -34 39 -36 45 -28 81 11 48 43 122 53
122 4 0 14 -3 23 -6z m-3204 -24 c0 -5 -4 -10 -10 -10 -5 0 -10 5 -10 10 0 6
5 10 10 10 6 0 10 -4 10 -10z m4287 -32 c-3 -8 -6 -5 -6 6 -1 11 2 17 5 13 3
-3 4 -12 1 -19z m-7 -41 c0 -7 -7 -22 -15 -33 -15 -19 -15 -19 -30 0 -23 31
-18 46 15 46 18 0 30 -5 30 -13z m-729 -180 c-10 -9 -11 -8 -5 6 3 10 9 15 12
12 3 -3 0 -11 -7 -18z m790 16 c0 -5 2 -18 3 -30 2 -19 -2 -23 -25 -23 -38 0
-47 19 -18 41 26 20 38 24 40 12z m-2171 -28 c16 -19 3 -55 -20 -55 -21 0 -37
40 -25 59 9 15 30 14 45 -4z m665 -31 c0 -15 -6 -29 -12 -32 -14 -4 -19 59 -6
71 10 11 19 -9 18 -39z m-2020 -39 c0 -22 -31 -31 -54 -16 -12 8 -13 12 -1 26
18 22 55 16 55 -10z m3359 15 c18 -7 26 -17 26 -34 0 -31 -10 -37 -49 -30 -27
6 -31 11 -31 40 0 37 10 41 54 24z m-630 -93 c-3 -9 -10 -17 -15 -17 -11 0
-12 34 -2 44 11 11 24 -9 17 -27z"/>
<path d="M5796 6384 c-12 -31 -6 -44 19 -44 14 0 25 5 25 10 0 6 6 10 14 10
12 0 26 20 26 36 0 2 -18 4 -39 4 -26 0 -41 -5 -45 -16z"/>
<path d="M5920 6387 c0 -18 34 -49 43 -40 4 3 7 17 7 30 0 18 -5 23 -25 23
-14 0 -25 -6 -25 -13z"/>
<path d="M6030 6370 c0 -32 8 -32 53 3 25 21 21 27 -18 27 -32 0 -35 -2 -35
-30z"/>
<path d="M6080 6350 c0 -5 5 -10 10 -10 6 0 10 5 10 10 0 6 -4 10 -10 10 -5 0
-10 -4 -10 -10z"/>
<path d="M5982 6159 c-15 -24 -13 -32 7 -20 7 5 11 16 9 25 -2 14 -5 13 -16
-5z"/>
<path d="M6050 6151 c0 -6 5 -13 10 -16 6 -3 10 1 10 9 0 9 -4 16 -10 16 -5 0
-10 -4 -10 -9z"/>
<path d="M6246 6082 c-3 -6 -1 -14 5 -17 15 -10 25 3 12 16 -7 7 -13 7 -17 1z"/>
<path d="M6270 6000 c8 -5 11 -10 6 -10 -5 0 -3 -7 4 -15 7 -8 17 -12 22 -9
11 7 -20 44 -36 44 -6 0 -4 -5 4 -10z"/>
<path d="M6220 5980 c0 -5 5 -10 10 -10 6 0 10 5 10 10 0 6 -4 10 -10 10 -5 0
-10 -4 -10 -10z"/>
<path d="M6060 5856 c0 -9 5 -16 10 -16 6 0 10 -13 10 -30 0 -31 17 -39 38
-18 26 26 11 58 -35 72 -17 6 -23 3 -23 -8z"/>
<path d="M6220 5691 c0 -6 4 -12 8 -15 5 -3 9 1 9 9 0 8 -4 15 -9 15 -4 0 -8
-4 -8 -9z"/>
<path d="M4913 5683 c-17 -6 -16 -30 0 -40 8 -4 16 -16 20 -25 15 -42 43 -1
31 46 -6 25 -23 31 -51 19z"/>
<path d="M4856 5642 c-3 -10 -21 -22 -38 -27 -40 -12 -46 -35 -16 -54 20 -12
24 -11 45 13 13 15 23 35 23 45 0 9 5 22 12 29 9 9 8 12 -4 12 -9 0 -19 -8
-22 -18z"/>
<path d="M4623 5544 c-13 -9 -23 -23 -23 -31 0 -22 -38 -71 -60 -78 -10 -3
-22 -16 -26 -28 -4 -12 -19 -38 -34 -57 -15 -19 -37 -53 -48 -75 -11 -22 -40
-60 -63 -85 -80 -85 -128 -149 -137 -182 -8 -31 -11 -33 -61 -38 -40 -4 -57
-11 -72 -30 -15 -21 -26 -80 -20 -114 4 -21 -34 -46 -66 -44 -64 4 -73 -56
-15 -95 24 -16 47 -43 61 -72 32 -67 26 -81 -43 -105 -24 -9 -27 -14 -21 -38
4 -15 13 -31 21 -35 9 -5 14 -24 14 -51 0 -51 45 -122 84 -132 24 -6 116 30
124 49 5 10 52 9 52 -2 0 -5 3 -16 6 -25 4 -11 -3 -15 -33 -18 -38 -3 -38 -3
-38 -48 0 -35 3 -44 15 -41 8 2 28 4 43 4 16 0 40 11 56 26 36 34 136 58 230
57 39 -1 71 2 71 7 0 5 9 20 20 34 29 37 25 76 -10 115 -16 18 -30 37 -30 43
0 5 -9 21 -20 35 -11 14 -20 37 -20 51 0 57 122 78 163 28 23 -28 22 -34 -12
-70 -26 -27 -32 -59 -12 -59 4 0 28 -16 53 -36 41 -31 52 -35 95 -32 48 3 48
3 64 50 8 26 19 51 22 55 13 12 7 78 -9 108 -11 22 -14 44 -9 88 8 62 -7 117
-31 117 -19 0 5 43 51 91 35 38 36 41 39 125 2 47 8 90 13 95 12 12 5 57 -10
66 -16 9 -37 -27 -37 -64 0 -26 -4 -33 -19 -33 -27 0 -43 24 -39 62 2 25 8 34
26 36 17 3 22 10 22 33 0 21 -5 29 -17 29 -28 -1 -73 -46 -73 -73 0 -23 -37
-67 -56 -67 -5 0 -21 14 -36 32 l-26 33 -36 -18 c-36 -17 -37 -17 -91 11 -30
15 -56 32 -59 39 -3 7 1 10 8 7 7 -3 16 2 19 10 4 9 13 16 21 16 21 0 38 34
24 48 -6 6 -17 8 -24 5 -10 -4 -12 0 -8 11 3 8 14 18 24 21 11 3 22 16 26 28
6 20 29 45 78 85 23 19 20 59 -5 67 -29 9 -21 47 11 56 l25 7 -26 1 c-15 1
-39 3 -55 6 -18 3 -38 -2 -51 -11z m44 -99 c3 -9 -2 -24 -11 -34 -9 -10 -16
-23 -16 -29 0 -17 -17 -15 -24 4 -9 25 -7 49 6 62 17 17 37 15 45 -3z m-29
-421 c4 -37 28 -46 103 -37 55 6 89 -9 82 -35 -4 -16 -18 -20 -88 -25 -55 -4
-92 -2 -108 6 -29 13 -57 65 -57 103 0 22 4 25 33 22 28 -3 32 -7 35 -34z"/>
<path d="M4846 5524 c-4 -9 -4 -19 -1 -22 3 -3 11 0 17 6 9 9 9 15 1 23 -7 7
-12 5 -17 -7z"/>
<path d="M6361 5521 c-11 -7 -10 -11 7 -20 28 -15 32 -14 32 9 0 21 -16 26
-39 11z"/>
<path d="M5570 4120 c0 -5 7 -10 15 -10 8 0 15 5 15 10 0 6 -7 10 -15 10 -8 0
-15 -4 -15 -10z"/>
<path d="M2061 4016 c-17 -20 16 -39 42 -24 15 7 16 12 6 24 -15 18 -33 18
-48 0z"/>
<path d="M4151 3995 c-18 -8 -42 -15 -52 -15 -11 0 -19 -4 -19 -8 0 -4 -18
-28 -40 -52 l-40 -44 6 -71 c3 -38 7 -87 9 -109 2 -21 9 -45 17 -52 20 -21
120 -34 216 -29 101 5 112 1 112 -35 0 -37 9 -60 24 -60 6 0 29 -9 50 -19 21
-11 44 -17 51 -15 19 8 90 116 87 132 -2 8 2 28 9 45 17 41 -4 56 -71 49 -47
-4 -50 -3 -61 24 -6 16 -10 61 -9 99 1 39 2 75 1 81 -2 15 -66 48 -143 73 -78
25 -101 25 -147 6z"/>
<path d="M4500 3910 c0 -5 12 -12 28 -16 15 -3 39 -10 55 -14 38 -13 34 5 -7
24 -38 18 -76 21 -76 6z"/>
<path d="M4660 3834 c0 -3 23 -39 50 -81 28 -42 53 -87 56 -100 8 -28 14 -29
48 -2 41 32 33 101 -14 118 -15 5 -31 19 -35 30 -3 12 -15 21 -26 21 -25 0
-30 1 -56 11 -13 5 -23 6 -23 3z"/>
<path d="M5230 3820 c-21 -21 -65 -26 -88 -11 -19 12 -62 1 -62 -16 0 -8 13
-28 29 -44 l30 -29 31 19 c26 15 38 17 71 9 21 -6 39 -14 39 -17 0 -13 99 -9
111 5 15 18 1 55 -19 53 -34 -3 -43 1 -52 26 -12 32 -61 34 -90 5z"/>
<path d="M5420 3820 c0 -5 5 -10 10 -10 6 0 10 5 10 10 0 6 -4 10 -10 10 -5 0
-10 -4 -10 -10z"/>
<path d="M85 3770 c-11 -5 -33 -9 -50 -10 -29 -1 -29 -1 -11 -15 20 -15 157
-22 190 -9 13 5 12 9 -8 25 -25 20 -85 24 -121 9z"/>
<path d="M5674 3769 c-4 -7 -21 -9 -45 -5 -29 5 -37 3 -34 -6 6 -16 85 -50 85
-38 0 12 32 0 42 -14 4 -6 8 -21 8 -33 0 -13 4 -23 10 -23 5 0 9 12 9 28 0 15
2 44 4 65 l5 37 -38 0 c-21 0 -42 -5 -46 -11z m33 -5 c-3 -3 -12 -4 -19 -1 -8
3 -5 6 6 6 11 1 17 -2 13 -5z"/>
<path d="M5500 3746 c0 -7 7 -27 15 -42 9 -17 11 -30 5 -32 -17 -6 -11 -59 6
-66 38 -15 65 45 31 69 -19 13 -19 17 -7 40 12 23 12 28 0 35 -22 14 -50 12
-50 -4z"/>
<path d="M5060 3696 c0 -9 7 -16 16 -16 9 0 14 5 12 12 -6 18 -28 21 -28 4z"/>
<path d="M760 3690 c0 -5 4 -10 9 -10 6 0 13 5 16 10 3 6 -1 10 -9 10 -9 0
-16 -4 -16 -10z"/>
<path d="M5280 3666 c0 -9 -8 -16 -19 -16 -26 0 -38 -20 -18 -32 9 -4 23 -15
31 -23 9 -10 17 -11 21 -5 12 19 35 10 35 -13 0 -29 33 -62 54 -54 15 6 36 66
36 105 0 28 -22 29 -59 1 -31 -23 -51 -19 -51 10 0 10 -7 24 -15 31 -12 10
-15 10 -15 -4z"/>
<path d="M5118 3618 c-2 -14 -11 -24 -23 -26 -11 -2 -24 -9 -30 -16 -5 -7 -22
-21 -38 -31 l-27 -18 32 -23 c17 -13 34 -27 37 -31 3 -5 14 -14 23 -21 15 -12
18 -9 28 27 6 23 15 41 20 41 6 0 9 3 8 8 -3 8 32 64 47 74 6 5 3 8 -6 8 -9 0
-19 7 -23 15 -9 24 -44 18 -48 -7z"/>
<path d="M5795 3570 c3 -5 8 -10 11 -10 2 0 4 5 4 10 0 6 -5 10 -11 10 -5 0
-7 -4 -4 -10z"/>
<path d="M826 3535 c-3 -8 -1 -15 4 -15 6 0 10 7 10 15 0 8 -2 15 -4 15 -2 0
-6 -7 -10 -15z"/>
<path d="M5252 3538 c-7 -7 -27 -17 -44 -23 -27 -8 -32 -15 -30 -35 5 -34 6
-35 59 -24 47 9 82 42 56 51 -7 3 -13 13 -13 24 0 22 -11 24 -28 7z"/>
<path d="M4514 3439 c-3 -5 -3 -18 1 -28 4 -13 -2 -26 -16 -40 -37 -34 -6 -67
39 -41 9 5 29 14 45 20 29 10 35 35 15 63 -16 21 -75 40 -84 26z"/>
<path d="M613 3433 c-14 -5 -18 -43 -5 -43 4 0 14 -5 22 -10 13 -8 12 -11 -4
-23 -11 -8 -16 -19 -12 -25 12 -20 21 -14 32 24 9 26 9 42 0 60 -11 25 -13 26
-33 17z"/>
<path d="M870 3381 c0 -11 9 -21 21 -24 17 -5 20 -11 15 -31 -8 -33 -3 -33 18
-1 15 23 15 26 -6 50 -26 30 -48 33 -48 6z"/>
<path d="M5731 3373 c0 -5 12 -18 27 -29 20 -16 33 -19 49 -13 26 9 21 38 -5
36 -9 0 -29 3 -44 6 -16 4 -28 4 -27 0z"/>
<path d="M5010 3361 c0 -6 -7 -11 -15 -11 -8 0 -15 -4 -15 -10 0 -5 4 -10 10
-10 5 0 12 -11 16 -25 3 -14 11 -25 18 -25 21 0 116 54 113 65 -2 5 -21 11
-43 11 -21 1 -49 5 -61 9 -15 5 -23 3 -23 -4z"/>
<path d="M5446 3351 c-9 -13 19 -32 38 -25 25 10 19 34 -8 34 -14 0 -27 -4
-30 -9z"/>
<path d="M397 3343 c-13 -12 -7 -23 12 -23 26 0 35 16 15 24 -19 7 -19 7 -27
-1z"/>
<path d="M5197 3223 c-4 -3 -7 -16 -7 -28 0 -27 -18 -45 -45 -45 -22 0 -55
-28 -55 -47 0 -21 26 -59 37 -56 7 3 23 22 35 44 25 45 35 47 72 18 18 -14 25
-27 21 -39 -7 -21 34 -70 58 -70 9 0 18 -8 22 -17 3 -10 17 -26 30 -36 20 -14
29 -16 46 -7 29 16 19 31 -31 49 -25 9 -52 24 -62 34 -10 9 -22 17 -28 17 -5
0 -10 7 -10 16 0 13 7 15 30 11 16 -4 32 -2 35 3 6 10 -41 60 -56 60 -5 0 -9
15 -9 34 0 25 -7 39 -22 50 -24 17 -50 21 -61 9z"/>
<path d="M6391 3214 c0 -11 3 -14 6 -6 3 7 2 16 -1 19 -3 4 -6 -2 -5 -13z"/>
<path d="M5540 3211 c0 -6 -9 -11 -21 -11 -12 0 -23 -8 -26 -20 -3 -12 -14
-20 -27 -20 -11 0 -33 -8 -48 -18 -41 -27 -22 -46 44 -43 43 2 57 7 75 28 16
20 19 32 13 49 -6 15 -5 24 3 27 8 2 8 5 -1 11 -7 4 -12 2 -12 -3z"/>
<path d="M5592 3150 c3 -50 17 -64 52 -51 21 9 24 14 17 33 -5 14 -20 26 -37
29 -16 4 -21 7 -11 8 21 1 13 21 -9 21 -11 0 -14 -10 -12 -40z"/>
<path d="M5732 3158 c-7 -7 -12 -15 -12 -19 0 -10 30 -39 40 -39 17 0 21 40 6
55 -18 18 -19 18 -34 3z"/>
<path d="M5858 3119 c-52 -44 -66 -86 -25 -73 45 14 87 55 87 85 0 16 -3 29
-7 29 -5 0 -29 -18 -55 -41z"/>
<path d="M6016 3125 c-3 -8 -3 -28 0 -45 6 -26 12 -30 52 -36 36 -5 47 -3 54
10 5 9 17 16 27 16 18 0 31 18 31 42 0 6 -12 8 -29 5 -17 -4 -36 0 -47 8 -26
19 -80 19 -88 0z"/>
<path d="M940 3102 c0 -37 10 -46 25 -25 10 13 10 21 1 35 -16 26 -26 22 -26
-10z"/>
<path d="M5563 3068 c-31 -15 -29 -23 7 -38 37 -15 45 -10 36 25 -7 28 -11 29
-43 13z"/>
<path d="M5676 3061 c-3 -5 1 -11 9 -15 9 -3 15 0 15 9 0 16 -16 20 -24 6z"/>
<path d="M396 3024 c-10 -27 -7 -54 8 -54 32 0 46 13 46 41 0 24 -4 29 -24 29
-13 0 -27 -7 -30 -16z"/>
<path d="M650 2984 c0 -4 11 -17 25 -30 20 -18 25 -20 25 -7 0 9 -8 22 -17 29
-20 15 -33 18 -33 8z"/>
<path d="M5520 2975 c0 -8 5 -15 10 -15 18 0 11 -29 -10 -40 -10 -6 -27 -27
-36 -46 -16 -32 -16 -40 -3 -62 21 -38 45 -49 69 -34 11 6 26 12 34 12 8 0 17
6 19 13 4 9 7 9 14 0 9 -13 31 -17 71 -15 22 2 29 23 16 56 -8 20 -43 21 -72
1 -16 -12 -26 -13 -42 -5 -34 18 -21 54 20 55 28 0 21 32 -15 64 -38 33 -75
41 -75 16z"/>
<path d="M5911 2976 c-13 -16 -6 -56 9 -56 6 0 13 12 16 26 8 32 -8 51 -25 30z"/>
<path d="M480 2915 c0 -16 6 -25 15 -25 9 0 15 9 15 25 0 16 -6 25 -15 25 -9
0 -15 -9 -15 -25z"/>
<path d="M160 2890 c0 -18 3 -19 21 -9 17 9 19 13 8 20 -22 14 -29 11 -29 -11z"/>
<path d="M5349 2855 c-8 -8 -26 -17 -38 -20 -13 -2 -24 -6 -25 -7 -1 -2 -6
-16 -12 -33 -13 -41 -39 -43 -71 -6 -44 50 -53 41 -46 -41 3 -41 12 -80 20
-90 12 -13 12 -24 2 -60 -12 -44 -12 -124 -1 -192 6 -34 12 -41 39 -48 18 -5
43 -22 55 -38 12 -17 27 -30 33 -30 23 0 45 -37 45 -75 0 -25 7 -46 21 -61 32
-34 46 -124 19 -124 -4 0 -19 11 -33 24 -14 13 -30 26 -36 27 -5 2 -12 26 -15
52 -8 70 -20 82 -50 52 -16 -17 -14 -48 9 -120 21 -65 5 -81 -44 -44 -33 24
-51 19 -51 -15 0 -13 -9 -35 -20 -49 -24 -30 -25 -43 -5 -51 17 -6 19 -43 5
-82 -8 -19 -8 -29 0 -34 17 -10 57 0 74 19 15 17 24 99 13 118 -5 9 1 9 25 3
24 -7 36 -6 48 5 18 17 50 20 50 6 0 -5 9 -12 19 -16 13 -4 21 -17 23 -38 4
-44 32 -43 36 1 3 25 8 32 20 30 10 -2 17 -13 17 -25 0 -12 10 -32 21 -45 30
-32 44 -62 44 -92 0 -21 5 -26 24 -26 61 0 52 87 -11 111 -21 8 -30 34 -23 64
8 32 -3 89 -25 133 -29 58 -30 71 -11 98 14 17 16 18 31 3 11 -11 17 -33 17
-62 0 -38 4 -49 25 -62 13 -9 29 -30 35 -46 5 -16 16 -29 22 -29 18 0 42 -29
53 -65 9 -26 14 -30 48 -30 33 0 42 -5 62 -34 28 -42 26 -65 -5 -69 -20 -3
-23 -8 -20 -45 3 -40 5 -42 41 -48 24 -4 44 -1 55 7 9 7 25 14 34 14 37 0 44
64 8 75 -15 5 -16 12 -9 51 5 25 11 50 14 55 13 21 50 6 110 -43 59 -49 79
-78 55 -78 -5 0 -10 -13 -10 -30 0 -16 5 -30 10 -30 6 0 10 13 10 28 0 16 3
32 8 36 4 4 7 20 7 34 0 21 8 31 32 42 35 16 42 40 18 60 -14 12 -44 10 -92
-5 -18 -6 -26 -1 -40 24 -10 17 -24 31 -30 31 -15 0 -17 16 -3 25 6 3 10 17
10 31 0 28 -33 34 -48 8 -8 -14 -10 -14 -25 1 -18 18 -22 45 -8 60 5 6 11 41
14 78 6 66 6 68 -16 65 -16 -2 -22 -10 -22 -28 0 -14 -4 -31 -9 -39 -5 -8 -11
-50 -12 -93 -2 -42 -8 -87 -14 -99 -11 -19 -17 -21 -63 -15 -60 8 -69 14 -44
27 10 6 17 22 17 39 0 20 5 30 15 30 9 0 15 9 15 24 0 13 -7 29 -15 36 -13 11
-15 8 -15 -18 0 -34 -14 -50 -27 -29 -4 8 -22 22 -40 31 -18 9 -36 24 -42 33
-6 12 -23 18 -53 19 -48 1 -48 -2 -29 106 11 70 19 84 34 65 14 -17 70 -29 92
-21 9 4 15 18 15 35 0 45 30 111 47 105 8 -3 17 -6 19 -6 2 0 4 -9 4 -20 0
-24 29 -41 58 -33 26 6 27 12 6 42 -13 18 -14 28 -6 44 6 12 12 33 14 47 2 14
14 31 29 39 23 13 28 13 40 0 28 -29 60 -80 79 -123 l18 -43 -26 -27 -26 -26
20 -20 c11 -12 36 -28 55 -38 24 -12 34 -24 33 -39 0 -20 4 -24 59 -38 4 -2
13 -3 21 -4 19 -1 29 -33 14 -43 -7 -4 -22 -8 -32 -8 -11 0 -28 -8 -38 -17
-18 -16 -17 -17 8 -34 15 -9 34 -15 43 -12 26 9 61 45 61 63 0 9 5 21 11 27 9
9 9 20 -1 42 -10 25 -18 31 -44 31 -40 0 -86 44 -89 86 -2 28 0 29 38 29 32 0
40 -4 43 -20 2 -11 10 -27 17 -35 7 -8 15 -24 17 -35 3 -19 3 -19 23 1 11 12
28 24 38 27 41 15 4 87 -46 87 -10 0 -33 11 -51 25 -37 28 -74 33 -82 10 -9
-22 -23 -18 -33 8 -12 31 -5 37 29 25 47 -16 60 2 60 79 0 74 -1 73 96 78 38
1 84 6 102 10 54 12 31 30 -39 31 -35 1 -73 3 -84 5 -13 3 -19 -1 -17 -9 4
-21 -39 -3 -61 25 -15 19 -22 21 -33 12 -11 -9 -17 -9 -29 1 -20 17 -32 6 -33
-31 -1 -42 -13 -52 -41 -33 -18 13 -22 24 -21 58 4 72 -6 86 -59 86 -41 0 -49
4 -64 29 -9 16 -17 43 -17 60 0 17 -3 31 -6 31 -3 0 -21 -16 -39 -36 l-34 -36
29 -59 c24 -47 28 -63 20 -84 -6 -14 -14 -23 -20 -20 -5 3 -15 -5 -21 -19 -10
-22 -8 -29 15 -57 21 -24 24 -34 15 -45 -15 -19 -39 -18 -39 1 0 24 -19 18
-58 -19 -31 -30 -36 -40 -34 -75 3 -41 3 -41 -33 -41 -30 0 -35 3 -35 24 0 15
-18 42 -47 73 -70 72 -138 153 -141 168 -6 24 17 26 38 3 13 -15 33 -23 53
-23 27 0 35 -6 57 -47 49 -92 71 -88 78 13 4 58 6 60 28 55 25 -7 38 10 54 64
7 24 3 29 -42 54 -43 24 -53 27 -73 16 -16 -9 -28 -9 -43 -1 -15 8 -23 7 -31
-3 -10 -12 -1 -20 46 -43 51 -25 58 -32 58 -58 0 -26 -3 -30 -25 -27 -14 2
-42 14 -62 28 -22 14 -52 24 -72 24 -41 0 -69 31 -60 66 3 12 0 33 -7 46 -7
12 -13 36 -13 53 -1 34 -23 44 -47 20z m-19 -111 c0 -8 -4 -12 -10 -9 -5 3
-10 13 -10 21 0 8 5 12 10 9 6 -3 10 -13 10 -21z m775 -164 c3 -5 -1 -10 -9
-10 -9 0 -16 5 -16 10 0 6 4 10 9 10 6 0 13 -4 16 -10z m-134 -33 c-1 -12 -15
-9 -19 4 -3 6 1 10 8 8 6 -3 11 -8 11 -12z m-542 -78 c34 -34 40 -69 15 -90
-14 -11 -18 -10 -30 6 -8 10 -14 25 -14 32 0 8 -7 25 -16 38 -15 23 -12 45 6
45 5 0 22 -14 39 -31z m31 -219 c0 -34 -21 -55 -38 -38 -28 28 -4 101 25 77 7
-7 13 -24 13 -39z m477 -322 c-3 -8 -6 -5 -6 6 -1 11 2 17 5 13 3 -3 4 -12 1
-19z m-224 -25 c-7 -2 -19 -2 -25 0 -7 3 -2 5 12 5 14 0 19 -2 13 -5z"/>
<path d="M6000 2815 c0 -20 4 -26 18 -23 9 2 17 12 17 23 0 11 -8 21 -17 23
-14 3 -18 -3 -18 -23z"/>
<path d="M952 2788 c-19 -19 -14 -30 11 -26 12 2 22 9 22 17 0 19 -18 24 -33
9z"/>
<path d="M6150 2731 c0 -34 18 -51 31 -30 14 21 6 53 -13 57 -14 3 -18 -3 -18
-27z"/>
<path d="M622 2739 c2 -7 10 -15 17 -17 8 -3 12 1 9 9 -2 7 -10 15 -17 17 -8
3 -12 -1 -9 -9z"/>
<path d="M1065 2700 c-4 -13 -15 -20 -30 -20 -14 0 -29 -9 -35 -20 -12 -23 -6
-40 15 -40 17 0 75 66 75 85 0 22 -18 18 -25 -5z"/>
<path d="M4480 2656 c0 -15 7 -26 20 -29 23 -6 28 21 8 41 -18 18 -28 14 -28
-12z"/>
<path d="M470 2605 c7 -8 16 -15 21 -15 5 0 9 7 9 15 0 9 -9 15 -21 15 -18 0
-19 -2 -9 -15z"/>
<path d="M818 2561 c-19 -19 -24 -67 -9 -90 15 -24 50 26 51 72 0 41 -14 47
-42 18z"/>
<path d="M6356 2565 c-20 -15 -20 -15 0 -30 30 -23 44 -18 44 15 0 33 -14 38
-44 15z"/>
<path d="M4520 2541 c0 -35 58 -101 71 -80 5 8 9 20 9 27 0 22 -38 69 -60 75
-16 4 -20 0 -20 -22z"/>
<path d="M665 2520 c-19 -37 -19 -50 0 -50 8 0 15 -4 15 -10 0 -5 4 -10 9 -10
10 0 30 80 24 93 -9 16 -33 5 -48 -23z"/>
<path d="M501 2464 c0 -11 3 -14 6 -6 3 7 2 16 -1 19 -3 4 -6 -2 -5 -13z"/>
<path d="M775 2419 c-10 -15 1 -23 20 -15 9 3 13 10 10 16 -8 13 -22 13 -30
-1z"/>
<path d="M685 2380 c-11 -33 16 -57 29 -25 6 17 -2 45 -14 45 -5 0 -11 -9 -15
-20z"/>
<path d="M4586 2384 c-17 -17 -19 -29 -7 -58 7 -18 8 -18 29 4 41 44 19 96
-22 54z"/>
<path d="M864 2336 c-9 -24 0 -51 18 -54 19 -4 35 38 23 57 -9 16 -35 13 -41
-3z"/>
<path d="M397 2329 c-10 -6 -22 -22 -27 -35 -6 -14 -23 -33 -40 -42 -26 -15
-30 -22 -30 -63 0 -31 -7 -55 -20 -72 -24 -30 -25 -37 -5 -37 8 0 15 -4 15
-10 0 -14 27 -13 32 2 2 6 10 8 16 4 7 -4 12 -28 11 -59 -1 -29 2 -67 6 -85 6
-29 11 -33 30 -28 20 5 23 1 29 -32 5 -33 9 -38 28 -36 13 1 24 3 25 3 1 1 -6
20 -17 44 -10 23 -21 65 -25 94 -4 29 -13 57 -21 64 -19 15 -18 26 5 50 15 16
26 19 53 14 64 -12 113 66 74 118 -7 9 -21 17 -30 17 -18 0 -22 15 -6 25 16
10 12 40 -8 58 -21 19 -68 22 -95 6z m83 -69 c0 -5 -9 -10 -20 -10 -11 0 -20
5 -20 10 0 6 9 10 20 10 11 0 20 -4 20 -10z m-110 -100 c0 -5 -4 -10 -10 -10
-5 0 -10 5 -10 10 0 6 5 10 10 10 6 0 10 -4 10 -10z"/>
<path d="M125 2320 c-3 -5 3 -15 15 -22 11 -7 20 -21 20 -30 0 -26 27 -22 34
5 9 33 -52 75 -69 47z"/>
<path d="M5877 2263 c-13 -12 -7 -23 12 -23 26 0 51 10 51 21 0 10 -53 12 -63
2z"/>
<path d="M800 2231 c0 -10 10 -31 22 -46 20 -26 22 -27 35 -9 19 26 16 52 -6
64 -30 15 -51 12 -51 -9z"/>
<path d="M5674 2197 c-9 -24 6 -44 18 -22 7 11 6 21 -1 28 -7 7 -12 6 -17 -6z"/>
<path d="M665 2179 c-8 -23 15 -55 46 -64 11 -4 19 -12 19 -18 0 -7 9 -18 20
-25 26 -16 26 2 0 26 -13 12 -18 25 -14 36 3 9 3 27 0 41 -8 33 -61 36 -71 4z"/>
<path d="M5770 2179 c0 -11 5 -17 10 -14 6 3 10 13 10 21 0 8 -4 14 -10 14 -5
0 -10 -9 -10 -21z"/>
<path d="M625 2180 c3 -5 8 -10 11 -10 2 0 4 5 4 10 0 6 -5 10 -11 10 -5 0 -7
-4 -4 -10z"/>
<path d="M4613 2174 c-7 -18 17 -38 31 -24 11 11 1 40 -14 40 -6 0 -13 -7 -17
-16z"/>
<path d="M0 2126 c0 -14 5 -26 10 -26 6 0 10 7 10 15 0 8 0 18 1 22 0 4 -4 9
-10 11 -6 2 -11 -8 -11 -22z"/>
<path d="M5996 2124 c-10 -25 -7 -49 8 -69 12 -17 18 -18 40 -7 31 14 34 44 6
72 -24 24 -46 26 -54 4z"/>
<path d="M818 2089 c-17 -29 -17 -31 4 -60 24 -32 29 -34 46 -17 17 17 15 54
-4 83 -21 32 -25 31 -46 -6z"/>
<path d="M627 2033 c-11 -10 -8 -43 3 -43 6 0 10 11 10 25 0 26 -2 29 -13 18z"/>
<path d="M6370 1980 c0 -5 7 -10 15 -10 8 0 15 5 15 10 0 6 -7 10 -15 10 -8 0
-15 -4 -15 -10z"/>
<path d="M67 1903 c-10 -19 -4 -103 9 -114 15 -12 19 -30 7 -28 -5 1 -19 1
-32 0 -22 -1 -23 -2 -8 -25 18 -26 17 -47 -2 -70 -15 -17 -7 -66 10 -66 6 0
16 14 22 30 6 17 18 31 27 31 8 1 24 2 35 3 12 1 23 12 29 31 5 17 13 40 18
51 12 26 1 50 -47 102 -18 21 -33 42 -33 47 -1 13 -29 19 -35 8z"/>
<path d="M5312 1868 c-16 -16 3 -48 28 -48 22 0 25 12 10 41 -12 22 -21 24
-38 7z"/>
<path d="M5266 1735 c-21 -43 -8 -68 33 -63 24 3 26 7 26 48 0 38 -3 45 -21
48 -16 2 -26 -6 -38 -33z"/>
<path d="M5702 1758 c5 -15 48 -24 48 -10 0 10 -23 22 -42 22 -5 0 -8 -6 -6
-12z"/>
<path d="M6231 1756 c-17 -20 7 -56 37 -56 33 0 40 29 13 52 -28 22 -35 22
-50 4z"/>
<path d="M5357 1686 c-9 -7 -21 -34 -26 -60 -7 -39 -6 -46 8 -46 20 1 75 86
67 105 -7 18 -25 19 -49 1z"/>
<path d="M5596 1658 c8 -53 10 -55 32 -35 14 13 31 15 73 12 29 -3 48 -3 42 1
-7 3 -13 13 -13 21 0 13 -8 14 -40 9 -32 -5 -44 -2 -60 14 -31 31 -41 25 -34
-22z"/>
<path d="M2365 1620 c-4 -6 -3 -16 3 -22 6 -6 12 -6 17 2 4 6 3 16 -3 22 -6 6
-12 6 -17 -2z"/>
<path d="M6078 1583 c-5 -52 -3 -62 12 -47 14 14 17 86 4 91 -8 2 -13 -14 -16
-44z"/>
<path d="M23 1562 c-20 -3 -23 -10 -23 -48 0 -51 11 -55 39 -15 34 47 27 71
-16 63z"/>
<path d="M5641 1526 c-12 -14 -6 -86 8 -86 7 0 51 80 51 93 0 13 -47 7 -59 -7z"/>
<path d="M5761 1498 c1 -24 7 -57 14 -73 8 -17 19 -44 26 -60 l12 -30 18 41
c25 55 28 88 9 90 -8 0 -23 2 -32 2 -11 1 -18 13 -20 34 -5 51 -28 48 -27 -4z"/>
<path d="M6116 1361 c-14 -15 -15 -24 -6 -40 14 -27 21 -26 51 5 24 25 24 26
5 40 -26 18 -29 18 -50 -5z"/>
<path d="M5675 1358 c-11 -6 -23 -16 -27 -22 -11 -16 -10 -74 2 -97 13 -24 40
-25 41 -1 2 27 8 64 15 100 7 34 1 38 -31 20z"/>
<path d="M6287 1264 c-3 -3 -3 -12 -1 -19 3 -7 -2 -15 -10 -18 -24 -9 -19 -40
10 -61 23 -16 28 -17 41 -3 11 10 13 24 8 46 -3 17 -6 34 -5 37 2 7 -20 24
-31 24 -3 0 -8 -3 -12 -6z"/>
<path d="M6116 1234 c-18 -18 -20 -26 -7 -39 5 -6 11 -28 13 -50 2 -32 7 -40
23 -40 16 0 21 9 26 50 5 35 2 57 -7 73 -17 26 -27 28 -48 6z"/>
<path d="M5893 1023 c-16 -6 -17 -69 -3 -78 17 -10 35 11 38 43 2 30 -12 43
-35 35z"/>
<path d="M6327 863 c-4 -3 -7 -17 -7 -30 0 -16 6 -23 20 -23 25 0 36 25 20 45
-14 16 -23 19 -33 8z"/>
<path d="M6020 829 c0 -12 8 -23 20 -26 12 -3 20 -14 20 -26 0 -13 4 -17 9
-11 12 11 27 72 16 62 -4 -4 -17 -1 -29 7 -28 20 -36 19 -36 -6z"/>
<path d="M5887 743 c-4 -3 -7 -17 -7 -30 0 -27 16 -29 56 -8 27 14 27 15 7 15
-14 0 -23 6 -23 15 0 15 -21 21 -33 8z"/>
<path d="M330 656 c0 -9 7 -16 16 -16 17 0 14 22 -4 28 -7 2 -12 -3 -12 -12z"/>
<path d="M5350 629 c0 -5 5 -7 10 -4 6 3 10 8 10 11 0 2 -4 4 -10 4 -5 0 -10
-5 -10 -11z"/>
<path d="M5664 605 c-10 -8 -28 -15 -39 -15 -11 0 -26 -4 -33 -8 -19 -13 2
-62 26 -62 28 0 96 65 89 84 -8 20 -18 20 -43 1z"/>
<path d="M90 558 c-6 -24 -15 -55 -20 -70 -5 -19 -4 -31 5 -38 19 -15 31 10
40 81 9 70 -9 89 -25 27z"/>
<path d="M5974 523 c-17 -20 -38 -36 -48 -36 -28 0 -41 -40 -26 -76 10 -25 14
-28 25 -17 8 7 16 29 20 48 4 21 14 37 28 44 13 5 21 16 19 27 -2 9 1 17 6 17
5 0 9 7 9 15 0 20 1 21 -33 -22z"/>
<path d="M5736 539 c-9 -24 -1 -69 12 -74 17 -6 15 -40 -3 -55 -12 -10 -13
-16 -3 -27 9 -12 15 -5 32 35 12 27 27 56 34 65 16 19 0 57 -23 57 -7 0 -20 3
-29 6 -9 3 -18 0 -20 -7z"/>
<path d="M6114 469 c-3 -6 -2 -15 2 -19 12 -12 38 5 30 19 -9 14 -23 14 -32 0z"/>
<path d="M5505 444 c-17 -13 -18 -16 -5 -24 18 -11 33 2 28 23 -3 14 -5 14
-23 1z"/>
<path d="M173 424 c-9 -24 22 -50 45 -38 16 7 18 14 11 32 -10 26 -47 30 -56
6z"/>
<path d="M6080 417 c0 -10 8 -17 18 -17 9 0 13 4 7 8 -5 4 -13 11 -17 16 -5 5
-8 2 -8 -7z"/>
<path d="M5320 376 c0 -9 7 -16 16 -16 9 0 14 5 12 12 -6 18 -28 21 -28 4z"/>
<path d="M5900 340 c-10 -18 -8 -20 20 -20 18 0 33 -6 36 -15 8 -19 84 -21 84
-2 0 20 -64 57 -98 57 -21 0 -35 -6 -42 -20z"/>
<path d="M5755 330 c-7 -21 0 -40 16 -40 12 0 12 47 0 55 -5 3 -12 -4 -16 -15z"/>
<path d="M5495 326 c-16 -11 -17 -18 -8 -37 l11 -24 11 29 c15 38 10 50 -14
32z"/>
<path d="M389 314 c-10 -13 -10 -17 2 -25 20 -13 34 -6 37 19 4 26 -19 30 -39
6z"/>
<path d="M0 254 c0 -8 5 -12 10 -9 6 3 10 10 10 16 0 5 -4 9 -10 9 -5 0 -10
-7 -10 -16z"/>
<path d="M4997 259 c-9 -6 -17 -17 -17 -25 0 -30 -43 -74 -71 -74 -34 0 -48
-19 -26 -35 21 -15 22 -39 2 -69 -28 -42 -11 -56 65 -56 l69 0 -9 29 c-4 15
-13 38 -19 49 -8 15 -8 29 0 48 5 16 9 40 7 55 -1 14 5 33 15 43 28 29 17 53
-16 35z"/>
<path d="M5476 224 c-11 -29 -7 -64 9 -64 18 0 19 -14 4 -41 -7 -15 -7 -24 1
-35 30 -35 38 15 18 103 -13 55 -21 65 -32 37z"/>
<path d="M830 191 c0 -26 4 -31 25 -31 23 0 25 -4 25 -44 0 -51 12 -64 45 -46
20 11 22 15 12 49 -13 45 -13 44 -39 46 -15 1 -24 10 -28 26 -3 13 -14 25 -23
27 -13 3 -17 -4 -17 -27z"/>
<path d="M4252 158 c-13 -7 -21 -17 -18 -25 6 -14 -30 -99 -45 -109 -29 -17 4
-24 116 -24 69 0 125 4 125 9 0 4 -31 38 -70 74 -38 36 -70 70 -70 76 0 13 -8
13 -38 -1z"/>
<path d="M793 123 c-15 -5 -17 -59 -4 -68 15 -9 32 31 23 53 -4 10 -13 17 -19
15z"/>
<path d="M5294 107 c-9 -24 4 -67 21 -67 25 0 29 40 6 63 -18 19 -21 19 -27 4z"/>
<path d="M680 90 c0 -5 5 -10 10 -10 6 0 10 5 10 10 0 6 -4 10 -10 10 -5 0
-10 -4 -10 -10z"/>
<path d="M480 40 c0 -32 4 -40 18 -40 29 0 43 34 26 59 -25 35 -44 27 -44 -19z"/>
<path d="M160 60 c0 -5 5 -10 11 -10 5 0 7 5 4 10 -3 6 -8 10 -11 10 -2 0 -4
-4 -4 -10z"/>
<path d="M1006 53 c-3 -3 -6 -17 -6 -30 0 -18 5 -23 25 -23 18 0 25 5 25 20 0
20 -32 44 -44 33z"/>
<path d="M1180 31 c-15 -29 -13 -31 20 -31 35 0 41 23 10 40 -15 8 -21 6 -30
-9z"/>
<path d="M2142 38 c-23 -23 -13 -38 23 -38 38 0 40 2 25 31 -12 22 -30 25 -48
7z"/>
<path d="M910 16 c0 -10 9 -16 21 -16 24 0 21 23 -4 28 -10 2 -17 -3 -17 -12z"/>
<path d="M5547 23 c-13 -12 -7 -23 13 -23 11 0 20 7 20 15 0 15 -21 21 -33 8z"/>
<path d="M2080 10 c0 -5 7 -10 16 -10 8 0 12 5 9 10 -3 6 -10 10 -16 10 -5 0
-9 -4 -9 -10z"/>
</g>
</svg>
