<?xml version="1.0" standalone="no"?>
<!DOCTYPE svg PUBLIC "-//W3C//DTD SVG 20010904//EN"
 "http://www.w3.org/TR/2001/REC-SVG-20010904/DTD/svg10.dtd">
<svg version="1.0" xmlns="http://www.w3.org/2000/svg"
 width="200.000000pt" height="200.000000pt" viewBox="0 0 200.000000 200.000000"
 preserveAspectRatio="xMidYMid meet">
<metadata>
Created by potrace 1.14, written by Peter Selinger 2001-2017
</metadata>
<g transform="translate(0.000000,200.000000) scale(0.100000,-0.100000)"
fill="#000000" stroke="none">
<path d="M975 1693 l-87 -88 -61 -2 c-71 -2 -84 -4 -178 -34 l-69 -22 -51 49
c-28 27 -60 58 -70 68 -12 12 -19 15 -19 7 0 -7 -4 -9 -10 -6 -6 3 -10 -4 -11
-17 0 -13 -2 -31 -4 -42 -2 -10 -6 -39 -9 -65 -13 -120 -17 -133 -68 -195 -27
-33 -52 -68 -55 -76 -4 -8 -11 -22 -18 -30 -20 -26 -55 -118 -62 -163 -8 -54
-8 -182 1 -225 4 -18 13 -52 22 -75 9 -23 18 -52 21 -64 3 -13 9 -23 14 -23 5
0 15 -12 23 -27 8 -16 27 -41 43 -58 15 -16 27 -34 25 -39 -2 -5 3 -4 11 3 12
9 18 8 31 -4 9 -10 16 -12 16 -5 0 6 4 9 10 5 17 -11 -1 -33 -23 -28 -17 4
-14 -1 12 -21 19 -14 37 -23 40 -20 3 3 1 8 -4 12 -14 10 -18 42 -5 42 5 0 10
-4 10 -10 0 -5 5 -10 11 -10 5 0 7 5 4 10 -3 5 -1 10 5 10 14 0 40 -25 40 -39
0 -5 17 -8 40 -6 22 2 42 -1 46 -6 3 -5 9 -7 14 -4 4 3 11 -2 14 -11 5 -12 2
-15 -11 -10 -14 6 -15 4 -6 -5 14 -14 34 -3 26 16 -3 8 0 15 6 15 14 0 15 -37
1 -45 -5 -3 -10 -12 -10 -18 0 -7 5 -4 11 6 5 9 15 17 21 17 9 0 9 -3 0 -12
-7 -7 -12 -17 -12 -23 0 -5 5 -2 11 8 5 9 17 17 24 17 8 0 15 4 15 10 0 5 -8
6 -17 3 -16 -6 -16 -5 -4 11 14 16 16 16 26 2 7 -9 14 -13 17 -10 3 2 8 -3 12
-12 4 -11 2 -15 -7 -11 -8 3 -20 1 -28 -5 -12 -8 -12 -9 1 -5 8 2 23 0 32 -4
14 -7 16 -5 12 14 -4 27 21 34 31 9 5 -13 8 -13 23 0 21 18 66 22 55 5 -5 -9
-2 -8 9 0 8 7 18 10 21 6 11 -10 8 -23 -4 -20 -6 1 -14 -5 -16 -13 -4 -12 -3
-12 5 -2 5 8 13 14 18 15 5 1 9 7 9 14 0 7 6 18 14 25 11 11 12 9 7 -9 -4 -12
-2 -24 3 -28 7 -4 8 1 4 12 -6 16 -5 16 10 4 10 -8 20 -11 24 -7 3 3 1 6 -5 6
-21 0 -2 26 20 27 16 2 18 -1 9 -10 -6 -6 -11 -16 -11 -22 0 -5 9 1 19 15 11
13 17 28 15 32 -3 4 -1 8 4 8 21 0 20 -16 -4 -49 l-25 -36 29 33 c28 31 57 47
32 17 -7 -8 -9 -15 -4 -15 5 0 2 -5 -6 -11 -13 -9 -13 -10 0 -6 8 2 14 10 13
16 -2 6 2 11 8 11 6 0 8 9 3 22 -6 20 -5 21 9 9 9 -7 15 -17 12 -21 -7 -11 15
-17 42 -12 12 2 25 13 28 23 4 11 11 17 16 13 5 -3 8 0 7 7 -2 6 3 14 10 16 8
3 10 -2 6 -14 -5 -17 -5 -17 6 0 10 15 14 16 28 6 14 -11 15 -11 5 1 -18 20
-16 35 2 20 12 -10 16 -9 21 4 3 9 9 14 13 12 4 -3 7 4 8 14 1 11 -3 22 -8 25
-5 4 -6 11 -3 17 4 7 9 6 14 -1 5 -9 10 -8 18 1 9 11 5 14 -16 13 -15 -1 -38
-7 -52 -14 -14 -7 2 13 35 43 53 50 93 76 68 44 -14 -18 -12 -45 4 -45 10 0
10 3 1 15 -10 11 -8 17 7 28 10 8 13 14 6 14 -7 0 -9 5 -6 10 5 8 11 8 19 1 9
-8 13 -7 13 2 0 7 -11 13 -23 13 -13 0 -20 -5 -17 -10 3 -6 0 -5 -8 1 -20 19
-34 16 -18 -4 12 -14 12 -16 0 -8 -10 6 -12 4 -6 -5 6 -9 4 -11 -5 -5 -9 5
-11 4 -6 -3 4 -7 2 -12 -3 -12 -6 0 -11 4 -11 10 0 5 -3 9 -7 9 -21 -3 -33 2
-33 16 0 8 5 15 12 15 6 0 3 7 -8 16 -18 14 -18 15 4 4 27 -13 44 -4 22 11
-12 9 -12 10 3 5 12 -4 17 -2 14 6 -2 7 -11 12 -19 10 -9 -1 -19 5 -22 14 -5
14 -4 15 9 4 12 -10 15 -10 15 1 0 9 3 10 8 4 4 -6 13 -10 20 -9 6 1 17 2 23
3 5 0 7 6 4 11 -4 6 -11 7 -17 4 -7 -5 -8 -2 -4 5 6 9 13 8 27 -5 10 -9 19
-12 19 -7 0 6 -7 16 -15 23 -8 7 -15 18 -15 24 0 6 4 5 9 -3 7 -11 10 -11 14
0 4 9 6 6 4 -5 -1 -10 3 -21 9 -23 12 -4 12 46 0 66 -5 8 1 7 18 -4 14 -10 26
-21 26 -26 0 -5 5 -9 10 -9 14 0 12 28 -2 33 -8 2 -9 8 -4 13 5 5 11 4 13 -4
3 -6 9 -9 14 -6 6 3 5 12 -3 22 -10 12 -10 14 0 8 11 -7 16 4 13 31 -2 15 16
26 24 13 6 -10 65 37 65 53 0 6 -8 3 -18 -6 -13 -12 -22 -13 -32 -6 -13 9 -13
10 0 6 8 -2 21 2 28 10 8 7 18 11 23 8 5 -4 9 1 9 9 0 9 5 16 11 16 5 0 7 5 3
12 -5 7 -11 5 -21 -7 -7 -11 -13 -14 -13 -8 0 7 4 15 10 18 6 4 5 11 -3 19 -6
8 -15 12 -19 9 -16 -9 -7 7 14 27 17 16 18 20 6 20 -9 0 -19 8 -23 18 -5 14
-4 15 6 5 7 -7 18 -13 24 -13 5 1 -1 10 -14 21 -13 11 -20 23 -16 27 4 4 10 1
12 -6 3 -6 10 -9 15 -6 7 4 8 2 4 -4 -3 -6 2 -15 11 -21 14 -8 15 -10 3 -11
-13 0 -13 -1 0 -10 11 -7 11 -10 2 -10 -10 0 -10 -5 -2 -20 11 -21 30 -27 30
-9 0 5 -4 8 -9 5 -4 -3 -7 11 -6 32 1 20 -1 42 -6 47 -4 6 -8 12 -8 15 -9 37
-15 49 -24 43 -5 -3 -7 -1 -3 5 21 34 -65 134 -190 224 -60 42 -112 71 -144
79 -34 9 -49 17 -46 26 3 7 1 13 -5 13 -6 0 -8 4 -5 8 8 13 -43 172 -54 172
-5 0 -48 -39 -95 -87z m550 -473 c13 -6 15 -9 5 -9 -8 0 -22 4 -30 9 -18 12
-2 12 25 0z m-38 -75 c0 -8 -4 -12 -9 -9 -5 3 -6 10 -3 15 9 13 12 11 12 -6z
m13 -65 c0 -5 -5 -10 -11 -10 -5 0 -7 5 -4 10 3 6 8 10 11 10 2 0 4 -4 4 -10z
m-85 -138 c-3 -3 -11 0 -18 7 -9 10 -8 11 6 5 10 -3 15 -9 12 -12z m-150 -42
c3 -5 1 -10 -4 -10 -6 0 -11 5 -11 10 0 6 2 10 4 10 3 0 8 -4 11 -10z m16 -33
c-10 -9 -11 -8 -5 6 3 10 9 15 12 12 3 -3 0 -11 -7 -18z m9 -23 c0 -8 -19 -13
-24 -6 -3 5 1 9 9 9 8 0 15 -2 15 -3z m-140 -24 c0 -5 -2 -10 -4 -10 -3 0 -8
5 -11 10 -3 6 -1 10 4 10 6 0 11 -4 11 -10z m55 -60 c-3 -4 1 -10 7 -13 7 -2
1 -4 -15 -3 -22 1 -25 3 -12 12 8 6 11 15 7 19 -4 5 -1 5 6 1 7 -4 10 -11 7
-16z m-125 6 c0 -2 -8 -10 -17 -17 -16 -13 -17 -12 -4 4 13 16 21 21 21 13z
m100 -48 c0 6 5 12 11 12 5 0 7 -4 4 -10 -3 -5 -2 -10 4 -10 5 0 12 6 15 13 3
6 4 3 1 -9 -4 -14 0 -21 10 -22 8 -1 22 -3 30 -4 11 -1 3 -14 -25 -43 -22 -22
-40 -44 -40 -48 0 -13 34 -3 48 13 8 8 11 10 8 3 -4 -6 -2 -14 3 -18 7 -4 6
-15 -1 -31 -7 -15 -15 -21 -21 -15 -11 11 -39 3 -31 -10 3 -5 -2 -6 -10 -3 -9
3 -23 -6 -37 -26 -13 -17 -29 -28 -36 -26 -7 3 -13 0 -13 -6 0 -6 -9 1 -21 16
-16 20 -24 24 -34 16 -10 -9 -16 -6 -25 11 -7 12 -8 19 -3 16 5 -3 10 3 10 14
2 21 -12 26 -23 7 -5 -7 -2 -9 7 -4 8 4 3 -1 -11 -12 -14 -12 -21 -24 -17 -28
4 -4 7 -2 7 4 0 7 5 12 11 12 8 0 9 -4 0 -13 -6 -8 -7 -18 -3 -23 4 -4 -1 -2
-10 5 -13 10 -18 10 -18 2 0 -7 -5 -9 -10 -6 -6 3 -13 -1 -17 -10 -6 -16 -7
-16 -15 -1 -8 14 -12 15 -25 4 -19 -15 -41 -19 -49 -7 -3 5 -10 9 -15 9 -6 0
-7 -6 -3 -12 6 -10 5 -10 -7 -1 -12 10 -17 8 -28 -9 -10 -16 -15 -18 -21 -7
-5 7 -21 14 -35 15 -14 0 -31 6 -37 12 -9 9 -16 8 -30 -5 -10 -9 -18 -11 -18
-6 0 6 10 18 23 27 18 14 18 15 2 8 -29 -13 -85 -8 -95 7 -4 8 -5 21 -2 30 5
14 3 14 -11 3 -8 -8 -13 -20 -10 -28 6 -17 -9 -18 -25 -2 -8 8 -12 9 -12 1 0
-6 -14 2 -31 19 -25 25 -33 29 -40 17 -7 -12 -9 -12 -9 0 0 8 -3 11 -7 8 -3
-4 -12 -2 -20 4 -7 6 -13 8 -13 4 0 -4 -7 -2 -15 5 -8 6 -20 8 -26 4 -8 -4 -9
-3 -5 4 4 7 1 12 -6 12 -10 0 -10 2 1 9 8 5 9 11 3 15 -6 3 -13 2 -17 -4 -4
-6 -11 -8 -16 -4 -5 3 -7 9 -4 14 3 5 -4 14 -15 20 -13 7 -19 17 -16 26 3 8 2
13 -3 10 -5 -3 -14 1 -20 8 -7 8 -8 17 -3 20 6 3 15 -1 22 -8 6 -8 20 -13 30
-11 13 3 17 -1 13 -11 -3 -8 -1 -14 5 -14 6 0 12 4 14 10 2 6 8 6 18 0 13 -8
12 -10 -3 -10 -10 0 -15 -5 -12 -10 4 -6 12 -10 18 -9 26 3 38 -2 31 -12 -4
-8 -9 -7 -15 2 -7 11 -9 11 -9 1 0 -7 -5 -10 -12 -6 -7 4 -8 3 -4 -5 4 -6 12
-9 17 -6 5 4 9 1 9 -5 0 -7 9 -5 22 4 12 9 27 16 33 16 5 -1 1 -6 -10 -13 -21
-13 -31 -37 -16 -37 5 0 12 6 15 13 3 6 4 3 1 -9 -4 -14 0 -21 10 -21 10 0 13
7 9 21 -3 15 2 25 18 35 22 13 23 13 5 -6 -22 -26 -22 -28 8 -29 23 -2 24 0
13 15 -12 14 -11 14 4 3 9 -8 23 -11 30 -7 7 4 4 -1 -6 -9 -11 -9 -28 -14 -38
-10 -10 3 -18 1 -18 -5 0 -6 7 -11 15 -11 8 0 15 -5 15 -10 0 -6 12 0 26 14
28 25 48 25 58 0 3 -9 10 -12 16 -9 6 3 7 -1 4 -9 -3 -9 -3 -16 0 -16 4 0 11
10 16 23 l9 22 0 -22 c1 -21 -9 -28 -32 -24 -5 1 -6 -3 -2 -9 3 -6 11 -8 16
-5 5 4 9 0 9 -7 1 -7 7 -2 14 12 8 14 12 29 9 34 -4 5 -1 6 5 2 9 -5 9 -13 2
-26 -6 -11 -6 -21 -1 -25 5 -3 12 4 16 15 4 11 11 17 17 14 6 -4 5 -10 -3 -15
-10 -6 -10 -9 -2 -9 20 0 26 20 12 38 -11 13 -8 12 9 -2 12 -11 22 -16 22 -12
0 4 10 2 22 -5 18 -10 20 -9 15 5 -4 11 -3 15 4 11 5 -4 7 -16 3 -28 -6 -21
-5 -21 12 -5 15 15 15 19 3 35 -12 16 -12 17 2 6 9 -7 19 -9 23 -5 4 4 7 3 6
-3 -5 -24 1 -27 15 -9 10 13 13 14 10 3 -4 -10 0 -16 10 -16 19 0 19 11 0 30
-13 13 -10 15 18 13 22 -1 31 3 29 12 -1 8 2 11 8 7 8 -5 8 -11 1 -19 -13 -15
-4 -26 18 -26 14 0 14 2 1 10 -9 6 -10 10 -3 10 6 0 15 -4 18 -10 3 -5 11 -10
17 -10 6 0 2 10 -9 23 -11 12 -23 29 -27 37 -4 8 0 5 10 -7 14 -20 18 -21 31
-7 9 8 18 12 21 9 4 -3 0 -10 -8 -15 -8 -6 -13 -10 -10 -11 3 0 16 -2 29 -5
18 -3 21 -1 14 8 -15 20 -24 50 -13 43 6 -3 10 -13 10 -21 0 -9 5 -12 12 -8 7
4 8 3 4 -4 -4 -7 -3 -12 3 -12 19 0 21 19 4 29 -10 6 -13 11 -6 11 6 0 15 -5
19 -12 5 -7 11 -5 21 7 7 11 13 13 13 7 0 -7 5 -12 11 -12 6 0 9 7 6 14 -4 10
-1 13 9 9 7 -3 14 0 14 6 0 6 -4 11 -10 11 -5 0 -10 5 -10 11 0 8 5 8 15 -1
20 -17 19 0 -2 30 -13 20 -14 22 -2 13 16 -13 29 -8 29 9 0 5 -5 6 -12 2 -7
-4 -8 -3 -4 5 4 6 12 9 17 6 5 -4 12 1 16 11 5 14 8 13 19 -7 7 -13 13 -18 14
-11z m-179 -5 c13 -16 12 -17 -3 -5 -9 8 -23 10 -29 6 -8 -4 -9 -3 -5 4 10 17
21 15 37 -5z m60 -6 c-10 -9 -11 -8 -5 6 3 10 9 15 12 12 3 -3 0 -11 -7 -18z
m-171 -26 c0 -6 -4 -12 -8 -15 -5 -3 -9 1 -9 9 0 8 4 15 9 15 4 0 8 -4 8 -9z
m117 -9 c0 -10 -7 -19 -14 -19 -9 0 -10 4 -3 12 5 7 7 15 3 18 -3 4 -1 7 5 7
6 0 10 -8 9 -18z m48 -11 c-9 -8 -36 -10 -30 -2 2 4 11 8 20 8 8 0 13 -3 10
-6z m-130 -21 c3 -5 1 -10 -4 -10 -6 0 -11 5 -11 10 0 6 2 10 4 10 3 0 8 -4
11 -10z m-342 -22 c-2 -5 -10 -8 -18 -8 -8 0 -16 3 -18 8 -3 4 5 7 18 7 13 0
21 -3 18 -7z m112 2 c3 -6 -1 -7 -9 -4 -18 7 -21 14 -7 14 6 0 13 -4 16 -10z
m50 0 c3 -5 1 -10 -4 -10 -6 0 -11 5 -11 10 0 6 2 10 4 10 3 0 8 -4 11 -10z
m225 6 c0 -2 -7 -7 -16 -10 -8 -3 -12 -2 -9 4 6 10 25 14 25 6z m-275 -45 c-3
-2 -12 2 -22 10 -15 13 -16 12 -9 -6 5 -15 4 -17 -5 -8 -18 18 -2 35 21 21 11
-7 17 -14 15 -17z m70 10 c3 -5 2 -12 -3 -15 -5 -3 -9 1 -9 9 0 17 3 19 12 6z
m-30 -11 c3 -6 -1 -7 -9 -4 -18 7 -21 14 -7 14 6 0 13 -4 16 -10z m76 -8 c-7
-2 -18 1 -23 6 -8 8 -4 9 13 5 13 -4 18 -8 10 -11z"/>
<path d="M1137 706 c-9 -14 -14 -31 -12 -39 7 -18 -34 -70 -50 -63 -20 7 -38
-20 -41 -59 l-2 -35 20 23 c13 14 18 16 15 6 -3 -9 3 -23 14 -32 11 -10 19
-12 19 -6 0 8 6 7 18 -2 15 -12 16 -12 5 2 -13 16 -8 29 9 29 5 0 6 -6 2 -12
-4 -7 2 -5 14 6 12 10 19 22 17 27 -3 4 -1 10 5 14 5 3 10 0 10 -7 0 -9 3 -10
8 -2 4 6 14 10 22 9 8 -1 21 3 27 11 10 10 9 12 -7 11 -11 -1 -20 -6 -20 -11
0 -6 -8 -3 -17 7 -16 16 -15 19 22 58 22 23 35 39 28 35 -6 -3 -14 0 -16 6 -4
9 -6 9 -6 -2 -1 -10 -6 -7 -17 9 -14 19 -18 21 -25 9 -4 -8 -6 -26 -5 -41 2
-15 -1 -30 -7 -34 -6 -4 -7 -1 -3 8 4 8 1 6 -7 -4 -10 -12 -17 -15 -22 -7 -4
6 -1 17 5 25 6 8 9 18 6 24 -3 5 -3 17 0 26 5 13 8 14 15 3 5 -7 9 -8 9 -3 0
6 -4 16 -9 23 -6 10 -12 7 -24 -12z m86 -40 c7 4 -3 -9 -22 -29 -30 -32 -33
-38 -20 -54 7 -10 9 -15 5 -11 -11 9 -38 -11 -31 -22 3 -5 0 -12 -6 -16 -8 -4
-9 -3 -5 4 11 19 -6 14 -29 -8 -14 -13 -25 -16 -35 -10 -10 7 -11 10 -2 10 10
0 10 4 0 19 -11 17 -13 18 -23 4 -10 -14 -12 -14 -10 3 2 27 15 45 26 38 6 -3
19 2 29 11 15 13 23 15 33 7 10 -9 19 -8 35 4 12 8 20 19 17 24 -3 5 -1 11 4
15 6 3 8 13 5 23 -5 15 -4 15 6 -1 6 -9 17 -14 23 -11z"/>
<path d="M1100 595 c-7 -9 -19 -14 -26 -11 -7 3 -16 0 -20 -6 -4 -7 -3 -8 4
-4 11 7 38 -31 34 -49 -1 -5 9 3 23 18 14 15 25 25 25 21 0 -3 7 -1 15 6 15
12 11 35 -5 25 -5 -3 -11 -1 -15 5 -9 14 -21 12 -35 -5z m35 -5 c4 -6 12 -7
18 -4 7 4 8 3 4 -2 -5 -5 -13 -10 -18 -10 -5 -1 -13 -2 -19 -3 -5 0 -9 -5 -7
-10 1 -5 -2 -9 -8 -10 -13 -1 -14 20 -2 37 11 15 24 16 32 2z"/>
<path d="M1105 580 c-3 -6 1 -7 9 -4 18 7 21 14 7 14 -6 0 -13 -4 -16 -10z"/>
<path d="M310 679 c0 -6 7 -17 15 -26 8 -8 12 -19 9 -25 -4 -7 -2 -8 4 -4 17
10 15 23 -8 46 -11 11 -20 15 -20 9z"/>
<path d="M1150 681 c0 -6 4 -13 10 -16 6 -3 7 1 4 9 -7 18 -14 21 -14 7z"/>
<path d="M371 607 c2 -2 11 -8 20 -15 12 -9 16 -9 16 1 0 7 -9 14 -20 14 -11
1 -18 1 -16 0z"/>
<path d="M553 571 c1 -22 12 -28 21 -12 3 5 -1 14 -9 21 -11 9 -14 8 -12 -9z"/>
<path d="M958 568 c9 -11 10 -18 2 -23 -6 -3 -8 -11 -5 -16 3 -5 -1 -6 -9 -3
-9 3 -13 11 -10 16 4 6 -1 6 -13 0 -15 -9 -22 -6 -32 10 -13 22 -26 17 -26
-10 0 -9 -6 -16 -13 -14 -8 1 -11 -2 -7 -8 3 -5 1 -10 -4 -10 -6 0 -11 4 -11
8 0 14 -33 11 -51 -4 -13 -11 -18 -11 -32 6 -18 21 -46 17 -43 -6 2 -16 14
-20 24 -8 4 4 1 4 -7 -1 -9 -5 -12 -4 -7 3 4 6 13 9 22 5 10 -4 12 -9 4 -18
-8 -10 -4 -12 20 -10 17 1 30 -2 30 -9 0 -6 5 -3 11 8 9 14 8 21 -2 28 -11 7
-9 8 4 4 10 -3 21 -6 23 -6 3 0 2 -5 -2 -12 -4 -7 -3 -8 4 -4 7 4 18 4 25 -1
20 -13 36 -12 48 3 8 10 15 11 24 4 14 -12 65 33 65 58 0 8 -3 12 -7 9 -3 -4
-13 -1 -22 6 -14 10 -14 10 -3 -5z m-48 -43 c0 4 6 2 13 -4 8 -6 18 -7 22 -3
5 4 5 1 1 -6 -6 -9 -11 -10 -21 -2 -9 7 -16 6 -24 -4 -7 -8 -20 -13 -29 -11
-9 2 -19 4 -21 4 -2 1 4 10 14 21 14 15 21 17 32 9 7 -6 13 -8 13 -4z m-116
-23 c3 -5 -1 -9 -9 -9 -8 0 -12 4 -9 9 3 4 7 8 9 8 2 0 6 -4 9 -8z"/>
<path d="M871 516 c-10 -11 -9 -14 1 -12 14 2 23 15 15 22 -2 2 -10 -2 -16
-10z"/>
<path d="M521 556 c-8 -10 -9 -16 -1 -21 5 -3 10 -3 10 1 0 3 7 0 17 -7 15
-13 15 -12 5 7 -6 12 -8 24 -5 28 3 3 2 6 -4 6 -6 0 -16 -6 -22 -14z"/>
<path d="M1518 1124 c-4 -6 3 -21 17 -34 l24 -22 -26 -41 c-34 -54 -64 -78
-80 -65 -8 7 -12 4 -12 -9 0 -24 -5 -45 -14 -60 -9 -15 -1 -33 15 -33 6 0 5 7
-3 17 -8 10 -9 14 -2 10 8 -5 11 -1 8 13 -3 17 -1 18 15 10 13 -7 19 -6 24 5
3 8 1 17 -4 20 -6 4 -10 1 -10 -5 0 -6 -5 -8 -11 -4 -8 4 -7 9 2 15 7 4 16 6
20 3 4 -2 9 3 12 10 3 8 16 20 29 26 21 10 21 10 6 -3 -10 -8 -15 -17 -11 -20
11 -11 23 -8 23 6 0 18 28 18 34 0 3 -7 0 -12 -6 -10 -7 1 -12 -12 -13 -30 -1
-18 2 -30 6 -27 4 2 6 11 2 20 -3 9 0 14 8 12 18 -4 21 71 3 97 -16 23 -18 39
-4 30 6 -3 10 -1 10 4 0 6 -5 11 -11 11 -5 0 -8 4 -4 9 3 5 -3 12 -14 16 -11
3 -21 14 -23 23 -2 11 -6 13 -10 6z m38 -93 c-3 -5 1 -12 10 -15 13 -5 14 -9
4 -21 -9 -11 -16 -12 -25 -5 -6 5 -16 6 -20 2 -5 -4 -5 -2 -2 5 4 6 17 9 30 6
20 -4 20 -3 4 7 -15 10 -16 30 -1 30 3 0 3 -4 0 -9z"/>
<path d="M1504 953 c4 -8 2 -13 -5 -13 -7 0 -9 -3 -6 -6 12 -13 -13 -43 -31
-38 -14 5 -14 4 -2 -4 8 -6 17 -9 20 -7 3 2 6 -10 7 -27 0 -16 5 -34 10 -39 5
-5 8 8 7 31 -1 34 2 40 20 41 20 0 20 1 -1 9 -13 5 -23 12 -23 16 0 3 7 3 16
0 15 -6 15 -4 3 10 -8 10 -12 19 -11 21 2 3 0 8 -4 11 -4 4 -4 1 0 -5z"/>
<path d="M1365 851 c4 -21 0 -31 -13 -36 -20 -9 -43 -16 -59 -17 -6 -1 -9 -7
-6 -14 3 -7 -7 -25 -23 -39 -15 -14 -25 -25 -23 -26 2 0 12 -2 21 -4 10 -2 20
1 24 6 3 5 -1 9 -8 9 -8 0 -9 3 -3 8 6 4 16 18 22 32 l12 25 -2 -25 c-2 -27
-4 -26 78 -18 17 2 31 9 31 16 1 6 2 20 3 30 1 14 3 14 10 3 5 -8 8 -19 7 -25
-2 -6 -1 -8 1 -3 3 4 9 4 15 1 5 -4 4 4 -3 17 -7 13 -12 28 -11 33 2 5 -3 4
-11 -2 -11 -10 -18 -9 -33 5 -11 10 -15 15 -10 11 5 -4 16 -2 23 4 11 9 12 7
7 -8 -6 -15 -4 -17 6 -7 13 12 43 7 36 -6 -3 -4 0 -13 6 -21 8 -12 9 -12 4 2
-3 10 -1 20 4 23 13 8 6 48 -9 53 -6 2 -10 -2 -9 -9 2 -8 -8 -14 -27 -14 -37
-2 -57 4 -49 16 3 5 0 9 -6 9 -6 0 -8 -12 -5 -29z m105 -11 c0 -5 -2 -10 -4
-10 -3 0 -8 5 -11 10 -3 6 -1 10 4 10 6 0 11 -4 11 -10z m-96 -31 c-4 -8 0 -9
15 -4 15 5 21 2 21 -9 0 -9 -5 -16 -11 -16 -5 0 -7 4 -4 10 4 6 -1 7 -11 3
-14 -5 -13 -8 7 -19 24 -13 24 -13 -6 -10 -16 2 -36 -1 -44 -8 -11 -8 -13 -8
-7 2 4 6 3 12 -2 12 -5 0 -9 7 -9 14 0 11 5 12 18 5 11 -6 20 -5 24 1 3 5 0
10 -7 10 -9 0 -9 3 2 10 20 13 23 12 14 -1z"/>
<path d="M1535 849 c-4 -6 -5 -12 -2 -15 2 -3 7 2 10 11 7 17 1 20 -8 4z"/>
<path d="M1563 845 c0 -8 4 -12 9 -9 5 3 6 10 3 15 -9 13 -12 11 -12 -6z"/>
<path d="M1546 772 c-8 -16 -12 -32 -9 -36 4 -3 13 8 20 25 17 41 9 50 -11 11z"/>
<path d="M1470 758 c0 -4 4 -8 9 -8 6 0 12 4 15 8 3 5 -1 9 -9 9 -8 0 -15 -4
-15 -9z"/>
<path d="M1415 739 c-4 -6 -5 -12 -2 -15 2 -3 7 2 10 11 7 17 1 20 -8 4z"/>
<path d="M1381 724 c0 -11 3 -14 6 -6 3 7 2 16 -1 19 -3 4 -6 -2 -5 -13z"/>
<path d="M1439 738 c-5 -18 -6 -38 -1 -34 7 8 12 36 6 36 -2 0 -4 -1 -5 -2z"/>
<path d="M1350 690 c-8 -5 -10 -10 -5 -10 6 0 17 5 25 10 8 5 11 10 5 10 -5 0
-17 -5 -25 -10z"/>
<path d="M1504 681 c1 -9 -5 -15 -12 -13 -8 1 -11 -2 -7 -8 10 -16 21 -12 32
13 9 18 8 24 -2 24 -7 0 -12 -7 -11 -16z"/>
<path d="M1276 662 c-3 -5 1 -9 9 -9 8 0 12 4 9 9 -3 4 -7 8 -9 8 -2 0 -6 -4
-9 -8z"/>
<path d="M1641 605 c-13 -25 -30 -46 -37 -46 -8 -1 -18 -3 -24 -4 -5 -1 -14
-3 -20 -4 -20 -2 -9 -19 15 -23 14 -3 25 -1 25 3 0 5 3 8 8 8 21 -4 30 5 52
43 14 26 25 37 28 28 2 -8 7 -24 12 -35 5 -11 16 -43 26 -72 10 -29 24 -55 32
-58 18 -7 15 -10 40 46 17 40 23 46 44 42 15 -3 29 2 37 11 11 14 11 16 -5 17
-11 1 -32 2 -48 4 -24 2 -31 -3 -47 -39 l-18 -40 -10 27 c-6 16 -11 33 -11 38
0 25 -44 99 -59 99 -9 0 -26 -20 -40 -45z"/>
<path d="M1350 616 c0 -2 8 -10 18 -17 15 -13 16 -12 3 4 -13 16 -21 21 -21
13z"/>
<path d="M1294 556 c1 -8 5 -18 8 -22 4 -3 5 1 4 10 -1 8 -5 18 -8 22 -4 3 -5
-1 -4 -10z"/>
<path d="M1379 545 c-1 -3 -2 -8 -3 -12 -1 -5 -5 -15 -10 -22 -5 -8 5 -5 22 8
18 12 32 25 32 29 0 3 -5 1 -12 -6 -15 -15 -32 -16 -23 -2 3 6 4 10 1 10 -3 0
-7 -2 -7 -5z"/>
<path d="M468 513 c7 -3 16 -2 19 1 4 3 -2 6 -13 5 -11 0 -14 -3 -6 -6z"/>
<path d="M470 490 c-8 -5 -10 -10 -5 -10 6 0 17 5 25 10 8 5 11 10 5 10 -5 0
-17 -5 -25 -10z"/>
<path d="M530 486 c0 -2 7 -7 16 -10 8 -3 12 -2 9 4 -6 10 -25 14 -25 6z"/>
<path d="M573 476 c6 -16 -19 -30 -28 -16 -4 6 -17 10 -31 10 -14 0 -23 -4
-19 -10 3 -5 13 -6 22 -3 10 4 14 2 9 -5 -8 -14 2 -20 45 -27 23 -4 29 -2 19
4 -8 5 -18 7 -22 5 -4 -3 -8 -1 -8 5 0 5 5 11 12 13 14 5 20 38 6 38 -6 0 -8
-6 -5 -14z"/>
<path d="M1166 478 c3 -5 10 -6 15 -3 13 9 11 12 -6 12 -8 0 -12 -4 -9 -9z"/>
<path d="M1310 478 c0 -11 -7 -16 -20 -13 -23 4 -27 -13 -5 -21 21 -8 51 24
36 39 -8 8 -11 7 -11 -5z"/>
<path d="M1057 447 c-4 -10 -2 -16 6 -14 7 1 11 -5 9 -13 -2 -8 0 -11 4 -7 11
11 14 38 4 32 -5 -3 -10 0 -12 7 -3 8 -7 6 -11 -5z"/>
<path d="M1156 447 c3 -10 9 -15 12 -12 3 3 0 11 -7 18 -10 9 -11 8 -5 -6z"/>
<path d="M598 443 c7 -3 16 -2 19 1 4 3 -2 6 -13 5 -11 0 -14 -3 -6 -6z"/>
<path d="M830 430 c-9 -6 -10 -10 -3 -10 6 0 15 5 18 10 8 12 4 12 -15 0z"/>
<path d="M956 431 c-3 -5 1 -11 9 -14 9 -4 12 -1 8 9 -6 16 -10 17 -17 5z"/>
<path d="M674 406 c2 -17 -1 -23 -10 -19 -8 3 -11 10 -7 17 4 6 -2 4 -12 -4
-17 -14 -18 -13 -12 4 6 16 5 17 -8 6 -12 -10 -13 -15 -3 -21 6 -4 16 -5 20
-3 4 3 8 0 8 -6 0 -6 8 -10 17 -8 16 3 26 45 12 53 -4 3 -6 -6 -5 -19z"/>
<path d="M918 423 c7 -3 16 -2 19 1 4 3 -2 6 -13 5 -11 0 -14 -3 -6 -6z"/>
<path d="M1015 420 c3 -5 8 -10 11 -10 2 0 4 5 4 10 0 6 -5 10 -11 10 -5 0 -7
-4 -4 -10z"/>
<path d="M1203 414 c-17 -17 -16 -21 2 -21 8 0 12 4 9 9 -3 4 2 8 10 8 21 0
28 16 8 17 -9 1 -23 -5 -29 -13z"/>
<path d="M714 399 c0 -13 3 -15 13 -7 7 6 13 12 13 13 0 2 -6 5 -13 8 -7 3
-13 -3 -13 -14z"/>
<path d="M904 402 c23 -26 23 -26 23 -7 0 8 -3 13 -5 10 -3 -3 -12 1 -21 7
-10 8 -9 4 3 -10z"/>
<path d="M1135 394 c-11 -8 -25 -12 -32 -10 -7 3 -13 1 -13 -3 0 -5 7 -11 15
-15 8 -3 15 -1 15 4 0 5 8 7 18 3 9 -3 14 -3 10 2 -4 4 -3 14 3 22 15 17 9 16
-16 -3z"/>
<path d="M813 385 c0 -8 4 -12 9 -9 5 3 6 10 3 15 -9 13 -12 11 -12 -6z"/>
<path d="M846 378 c3 -5 10 -6 15 -3 13 9 11 12 -6 12 -8 0 -12 -4 -9 -9z"/>
<path d="M730 371 c-24 -7 -24 -7 -3 -13 14 -4 24 -1 27 8 3 8 4 14 3 13 -1
-1 -13 -4 -27 -8z"/>
<path d="M776 367 c3 -10 9 -15 12 -12 3 3 0 11 -7 18 -10 9 -11 8 -5 -6z"/>
<path d="M1035 370 c-3 -5 -1 -10 4 -10 6 0 11 5 11 10 0 6 -2 10 -4 10 -3 0
-8 -4 -11 -10z"/>
<path d="M831 349 c-13 -5 -21 -12 -18 -15 3 -3 14 -1 25 5 11 6 23 7 27 3 5
-4 5 -1 1 6 -4 6 -8 12 -9 11 -1 0 -13 -5 -26 -10z"/>
</g>
</svg>
