<?xml version="1.0" standalone="no"?>
<!DOCTYPE svg PUBLIC "-//W3C//DTD SVG 20010904//EN"
 "http://www.w3.org/TR/2001/REC-SVG-20010904/DTD/svg10.dtd">
<svg version="1.0" xmlns="http://www.w3.org/2000/svg"
 width="640.000000pt" height="640.000000pt" viewBox="0 0 640.000000 640.000000"
 preserveAspectRatio="xMidYMid meet">
<metadata>
Created by potrace 1.14, written by Peter Selinger 2001-2017
</metadata>
<g transform="translate(0.000000,640.000000) scale(0.100000,-0.100000)"
fill="#000000" stroke="none">
<path d="M0 5946 l0 -453 83 -6 c45 -4 153 -7 240 -7 128 0 159 3 163 14 3 8
1 97 -5 198 -6 101 -15 269 -21 373 -6 105 -13 223 -16 263 l-6 72 -219 0
-219 0 0 -454z"/>
<path d="M3210 6389 c0 -5 5 -7 10 -4 6 3 10 8 10 11 0 2 -4 4 -10 4 -5 0 -10
-5 -10 -11z"/>
<path d="M4915 6273 c4 -71 10 -175 14 -233 7 -129 27 -139 25 -12 -2 115 -14
321 -20 350 -2 12 -9 22 -16 22 -8 0 -9 -34 -3 -127z"/>
<path d="M5222 6380 c-29 -24 -28 -83 2 -88 15 -3 18 0 13 20 -5 17 -1 27 13
36 10 6 24 21 30 32 9 17 8 20 -12 20 -13 -1 -33 -9 -46 -20z"/>
<path d="M5686 6385 c-21 -16 -15 -45 9 -45 15 0 20 -12 9 -23 -17 -17 -10
-79 12 -104 13 -15 26 -24 30 -20 4 3 1 13 -5 21 -15 18 -6 37 14 29 24 -9 17
14 -10 35 -14 11 -25 25 -25 31 0 15 23 14 38 -1 6 -6 14 -9 18 -6 9 10 -15
48 -31 48 -9 0 -15 10 -15 25 0 28 -16 32 -44 10z"/>
<path d="M6031 6384 c0 -11 3 -14 6 -6 3 7 2 16 -1 19 -3 4 -6 -2 -5 -13z"/>
<path d="M6130 6390 c0 -5 -7 -10 -15 -10 -8 0 -22 -14 -31 -32 l-16 -31 -19
24 -19 24 2 -40 c2 -32 7 -40 23 -40 17 0 20 -8 23 -49 3 -47 2 -48 -21 -43
-54 14 -82 -37 -86 -153 -2 -58 2 -73 39 -144 22 -44 40 -89 40 -101 0 -11 17
-41 38 -67 33 -40 40 -56 45 -110 3 -35 13 -80 21 -100 19 -46 20 -90 1 -143
-18 -49 -4 -69 25 -37 25 26 33 27 51 6 11 -13 10 -17 -5 -26 -13 -7 -16 -17
-11 -38 7 -31 -14 -82 -46 -113 -10 -9 -16 -24 -13 -32 4 -8 1 -15 -4 -15 -6
0 -14 -21 -18 -47 -4 -26 -17 -69 -30 -96 -12 -27 -20 -55 -18 -62 3 -6 -2
-18 -11 -25 -8 -7 -15 -25 -15 -40 0 -16 -6 -41 -14 -57 -19 -37 -37 -107 -43
-164 -6 -60 8 -71 100 -76 40 -2 85 -9 101 -14 16 -5 38 -9 49 -9 11 0 28 -6
36 -14 9 -7 37 -16 64 -19 l47 -7 0 955 0 955 -135 0 c-83 0 -135 -4 -135 -10z
m-78 -301 c-17 -34 -23 -39 -28 -25 -9 25 23 93 38 78 8 -8 5 -23 -10 -53z"/>
<path d="M4737 6373 c-9 -9 -9 -43 1 -43 18 1 34 19 29 34 -7 17 -19 21 -30 9z"/>
<path d="M3968 6328 c-33 -11 -37 -28 -7 -28 17 0 20 -5 17 -25 -4 -21 -1 -25
17 -25 16 0 22 -6 21 -17 -1 -12 7 -19 24 -21 14 -2 30 -10 37 -19 13 -16 44
-14 50 3 2 7 -6 14 -19 17 -13 4 -33 17 -45 29 -47 49 -61 67 -65 81 -2 11 -9
12 -30 5z"/>
<path d="M5173 6333 c-15 -5 -18 -93 -4 -93 7 0 24 92 18 96 -1 1 -8 -1 -14
-3z"/>
<path d="M4685 6280 c-13 -15 -15 -24 -8 -31 19 -19 48 -6 48 20 0 32 -17 36
-40 11z"/>
<path d="M5217 6263 c-12 -11 -8 -23 8 -23 8 0 15 7 15 15 0 16 -12 20 -23 8z"/>
<path d="M3800 6245 c0 -8 5 -15 10 -15 6 0 10 7 10 15 0 8 -4 15 -10 15 -5 0
-10 -7 -10 -15z"/>
<path d="M5180 6209 c0 -20 34 -38 63 -32 29 6 35 -5 15 -26 -11 -11 -9 -13
10 -8 14 3 25 0 30 -10 10 -18 61 -8 69 14 8 19 -5 29 -19 15 -16 -16 -38 -15
-38 2 0 8 -9 17 -19 21 -11 3 -22 13 -25 22 -6 14 -9 14 -27 -3 -20 -18 -21
-18 -34 -1 -14 20 -25 22 -25 6z"/>
<path d="M4610 6200 c0 -5 6 -10 14 -10 8 0 18 5 21 10 3 6 -3 10 -14 10 -12
0 -21 -4 -21 -10z"/>
<path d="M5663 6198 c-4 -7 -21 -21 -38 -30 -38 -21 -50 -40 -41 -64 7 -18 9
-18 23 4 9 12 24 22 34 22 14 0 19 7 19 25 0 19 5 25 21 25 11 0 19 5 17 12
-6 18 -25 21 -35 6z"/>
<path d="M4157 6183 c-3 -5 -2 -15 3 -22 10 -17 43 -6 38 12 -6 15 -34 22 -41
10z"/>
<path d="M4240 6170 c-11 -7 -12 -12 -3 -21 14 -14 46 -4 41 13 -6 16 -20 19
-38 8z"/>
<path d="M4322 6154 c2 -11 11 -20 22 -22 13 -3 17 1 14 14 -2 11 -11 20 -22
22 -13 3 -17 -1 -14 -14z"/>
<path d="M5527 6143 c-11 -11 -17 -13 -17 -5 0 15 -32 16 -48 0 -15 -15 -16
-48 -2 -48 6 0 13 7 16 15 8 20 24 19 40 -2 12 -17 14 -17 36 4 20 20 21 25 7
38 -13 13 -17 13 -32 -2z"/>
<path d="M5393 6134 c-9 -25 12 -38 31 -19 9 9 14 21 11 26 -10 14 -35 10 -42
-7z"/>
<path d="M4290 6081 c0 -25 6 -27 13 -6 4 8 2 17 -3 20 -6 4 -10 -3 -10 -14z"/>
<path d="M4276 6024 c-3 -9 -6 -23 -6 -31 0 -13 3 -13 15 -3 16 13 21 50 6 50
-5 0 -12 -7 -15 -16z"/>
<path d="M5240 5988 c0 -15 63 -79 95 -96 15 -8 24 -7 37 5 16 15 18 15 18 0
0 -16 47 -47 70 -47 21 0 9 50 -19 79 -36 36 -81 56 -149 66 -41 5 -52 4 -52
-7z"/>
<path d="M4264 5832 c-5 -75 -9 -209 -9 -297 0 -135 2 -160 15 -160 12 0 15
41 15 293 0 162 -3 296 -6 298 -4 2 -11 -58 -15 -134z"/>
<path d="M5286 5791 c-4 -5 -3 -16 0 -25 8 -22 84 -23 84 -1 0 27 -71 48 -84
26z"/>
<path d="M5371 5731 c-40 -11 -34 -25 20 -48 39 -17 56 -20 71 -12 15 8 17 13
7 25 -6 8 -17 14 -24 14 -7 0 -15 7 -19 15 -6 16 -16 17 -55 6z"/>
<path d="M3650 5410 c0 -5 7 -10 15 -10 8 0 15 5 15 10 0 6 -7 10 -15 10 -8 0
-15 -4 -15 -10z"/>
<path d="M5790 5365 c0 -20 4 -26 18 -23 9 2 17 12 17 23 0 11 -8 21 -17 23
-14 3 -18 -3 -18 -23z"/>
<path d="M5906 5368 c-24 -34 -20 -58 9 -58 28 0 49 31 40 60 -8 26 -30 25
-49 -2z"/>
<path d="M5694 5365 c-9 -23 3 -45 25 -45 26 0 34 15 21 40 -13 24 -38 26 -46
5z"/>
<path d="M5616 5341 c-4 -5 -2 -12 3 -15 5 -4 12 -2 15 3 4 5 2 12 -3 15 -5 4
-12 2 -15 -3z"/>
<path d="M0 5260 c0 -5 6 -10 13 -10 8 0 22 -9 31 -19 18 -19 17 -20 -15 -30
-33 -9 -33 -9 17 -10 33 -1 69 7 100 21 l49 22 -85 17 c-101 21 -110 22 -110
9z"/>
<path d="M213 5209 c7 -25 0 -28 -93 -33 -41 -2 -85 -7 -97 -11 -25 -8 -32
-45 -9 -45 24 0 30 -21 7 -27 -20 -5 -21 -12 -21 -119 l0 -113 33 -5 c26 -5
339 -40 397 -45 8 -1 58 -3 111 -6 54 -2 114 -8 135 -14 22 -6 60 -11 85 -11
25 0 70 -4 100 -10 30 -5 153 -21 274 -35 121 -14 298 -34 392 -45 95 -11 213
-20 263 -20 90 0 90 0 90 25 0 20 6 27 30 31 38 8 49 22 52 67 3 29 8 36 28
40 27 6 40 0 25 -11 -17 -12 -11 -55 13 -92 12 -19 22 -38 22 -41 0 -13 -49
-106 -62 -115 -7 -6 -34 -18 -60 -28 -26 -10 -69 -35 -95 -57 -26 -21 -54 -39
-61 -39 -8 0 -27 -11 -43 -24 -19 -16 -48 -27 -84 -31 -46 -6 -58 -12 -69 -34
-8 -14 -28 -39 -45 -55 -17 -17 -35 -44 -40 -60 -5 -17 -21 -58 -35 -91 -18
-43 -24 -70 -19 -94 6 -36 -6 -50 -42 -51 -11 -1 -35 -14 -54 -30 -29 -24 -33
-33 -29 -64 4 -38 0 -44 -20 -24 -9 9 -20 8 -49 -5 -21 -8 -50 -18 -65 -21
-26 -6 -27 -8 -21 -54 3 -28 1 -58 -5 -69 -6 -11 -14 -47 -17 -79 -8 -81 -12
-91 -44 -102 -16 -6 -43 -30 -59 -54 -17 -25 -47 -58 -66 -73 -20 -16 -36 -34
-36 -41 0 -7 -15 -22 -34 -33 -24 -15 -36 -31 -40 -55 -4 -19 -15 -45 -26 -58
-10 -14 -33 -51 -51 -84 -18 -32 -41 -65 -51 -72 -10 -7 -18 -19 -18 -26 0 -7
-9 -42 -20 -76 -11 -34 -20 -84 -20 -110 0 -49 -23 -128 -58 -195 -48 -95
-197 -255 -307 -330 -70 -47 -155 -132 -180 -179 -17 -31 -17 -40 -5 -106 8
-40 21 -80 29 -90 25 -27 114 -48 261 -60 74 -7 162 -16 195 -22 33 -6 100
-14 149 -17 81 -7 90 -9 109 -35 25 -34 53 -45 143 -55 117 -14 163 -49 101
-79 -64 -31 -71 -95 -13 -126 34 -18 60 -73 49 -102 -8 -21 22 -44 58 -44 l32
0 -6 -45 c-7 -64 8 -80 122 -134 40 -19 49 -20 104 -9 32 7 62 18 64 25 3 7
14 13 24 13 20 0 26 -15 9 -25 -6 -3 -10 -14 -10 -24 0 -18 18 -27 65 -37 11
-2 27 -14 35 -25 8 -12 31 -39 52 -60 37 -37 48 -59 28 -59 -33 0 -94 -109
-85 -151 5 -20 1 -37 -14 -57 -20 -28 -20 -29 0 -61 10 -17 19 -39 19 -49 1
-34 70 -92 112 -92 40 0 69 -23 100 -80 16 -30 44 -70 61 -87 21 -22 32 -46
36 -75 6 -42 6 -42 61 -53 30 -7 93 -32 140 -58 47 -25 117 -53 155 -62 39
-10 74 -21 79 -26 6 -5 20 -9 33 -9 12 0 48 -7 79 -15 31 -8 98 -17 148 -20
50 -3 123 -12 161 -21 140 -31 161 -35 238 -39 42 -2 118 -11 167 -21 50 -9
96 -14 104 -11 8 3 29 2 48 -3 18 -5 102 -11 187 -15 84 -4 176 -10 204 -15
28 -4 76 -6 107 -3 58 5 116 -10 105 -27 -4 -7 402 -10 1214 -10 l1221 0 0
2205 c0 2092 -1 2206 -17 2211 -10 3 -27 10 -38 14 -61 26 -124 14 -154 -29
-11 -15 -18 -18 -28 -9 -10 8 -13 7 -13 -2 0 -7 16 -28 35 -46 44 -41 65 -121
38 -141 -9 -7 -29 -13 -43 -13 -26 0 -70 -36 -70 -57 0 -7 -6 -18 -14 -25 -7
-8 -21 -28 -30 -46 -9 -17 -25 -36 -35 -41 -10 -6 -24 -25 -30 -42 -12 -34
-34 -35 -39 -1 -2 12 -11 27 -21 34 -10 7 -20 20 -23 28 -2 8 -22 24 -43 35
-28 14 -41 29 -47 52 -5 18 -20 40 -35 50 -15 10 -47 37 -71 61 -25 23 -48 42
-52 42 -4 0 -15 9 -24 19 -10 11 -30 23 -45 26 -16 3 -38 19 -50 35 -15 21
-30 30 -50 30 -15 0 -36 9 -46 20 -10 11 -24 20 -32 20 -7 0 -26 8 -40 17 -23
15 -114 33 -163 33 -8 -1 -38 0 -67 0 -32 1 -61 -5 -76 -15 -29 -19 -55 -11
-59 18 -4 29 -22 28 -26 -1 -2 -13 -10 -26 -18 -29 -8 -3 -14 -11 -14 -18 0
-25 -26 -36 -54 -23 -23 10 -30 9 -46 -8 -11 -11 -20 -36 -22 -57 -2 -33 -8
-43 -44 -67 -42 -28 -44 -28 -93 -15 -62 16 -71 22 -71 45 0 22 -28 40 -62 40
-30 0 -122 43 -160 75 -16 14 -35 25 -42 25 -7 0 -21 8 -30 19 -9 10 -48 33
-86 50 -39 18 -70 36 -70 40 0 4 -33 15 -72 26 -40 10 -106 36 -146 57 -39 21
-82 38 -95 38 -46 1 -172 41 -197 63 -28 26 -72 47 -99 47 -9 0 -30 14 -47 31
-38 40 -74 55 -171 69 -43 7 -89 20 -103 29 -56 37 -79 44 -117 36 -21 -4 -63
-10 -94 -14 -31 -4 -65 -13 -74 -21 -10 -8 -41 -16 -69 -17 -96 -4 -231 -26
-239 -40 -15 -24 -65 -43 -116 -43 -28 0 -73 -5 -101 -11 -34 -7 -55 -8 -63
-1 -12 10 -55 16 -90 14 -10 -1 -21 -12 -26 -25 -8 -20 -15 -23 -45 -19 -32 4
-36 7 -36 32 0 16 6 31 13 33 18 8 -12 27 -44 27 -14 0 -34 7 -45 15 -31 23
-96 15 -159 -22 -15 -9 -25 -8 -47 5 -39 23 -35 32 12 32 22 0 40 5 40 10 0 6
-19 10 -43 10 -24 0 -67 7 -97 16 -44 13 -57 13 -77 3 -20 -11 -26 -10 -46 9
-13 12 -32 22 -43 22 -19 0 -122 17 -279 47 -44 8 -92 16 -107 18 -15 2 -36 9
-47 15 -11 5 -51 12 -88 14 -37 2 -75 6 -83 9 -8 3 -37 9 -65 12 -27 4 -58 11
-67 16 -9 5 -55 11 -103 13 -47 2 -91 8 -98 13 -31 25 -51 24 -72 -3 -15 -18
-27 -25 -39 -21 -14 6 -15 10 -4 27 11 17 10 22 -2 30 -8 5 -26 10 -40 10 -14
0 -68 9 -120 21 -104 22 -140 19 -140 -11 0 -15 -7 -20 -24 -20 -32 0 -42 17
-16 25 11 3 20 10 20 14 0 14 -24 31 -43 31 -15 0 -18 -5 -14 -21z m-4 -65
c11 -9 -15 -24 -44 -24 -37 0 -56 17 -34 30 11 7 67 3 78 -6z m261 -15 c0 -16
-25 -20 -54 -9 -17 6 -25 6 -21 0 4 -6 -10 -10 -34 -10 -23 0 -41 2 -41 5 0 9
55 32 67 28 6 -2 14 0 17 6 8 12 66 -6 66 -20z m60 -9 c0 -5 -2 -10 -4 -10 -3
0 -8 5 -11 10 -3 6 -1 10 4 10 6 0 11 -4 11 -10z m600 -96 c0 -2 -9 -4 -21 -4
-11 0 -18 4 -14 10 5 8 35 3 35 -6z m74 -10 c9 -3 16 -10 16 -15 0 -13 -24
-11 -56 6 l-29 15 27 0 c14 0 33 -3 42 -6z m99 -34 c8 0 8 -3 0 -11 -13 -13
-43 -5 -43 12 0 6 7 8 16 5 9 -3 21 -6 27 -6z m217 -31 c0 -5 -17 -9 -37 -9
-37 1 -38 1 -14 14 25 14 51 11 51 -5z m-398 -1 c-17 -8 -26 -8 -34 0 -9 9 -4
12 23 11 32 0 33 -1 11 -11z m-2 -58 c0 -5 -7 -10 -15 -10 -8 0 -15 5 -15 10
0 6 7 10 15 10 8 0 15 -4 15 -10z m707 4 c-3 -3 -12 -4 -19 -1 -8 3 -5 6 6 6
11 1 17 -2 13 -5z m-67 -26 c0 -16 -3 -19 -11 -11 -6 6 -8 16 -5 22 11 17 16
13 16 -11z m-1010 2 c0 -12 -24 -12 -60 0 -21 7 -19 8 18 9 23 1 42 -3 42 -9z
m779 -111 c-19 -12 -59 -11 -59 0 0 10 49 20 64 13 4 -3 2 -8 -5 -13z m81 7
c0 -9 -40 -13 -46 -5 -3 5 6 9 20 9 14 0 26 -2 26 -4z m4725 -706 c18 -35 17
-39 -65 -149 -30 -40 -61 -85 -68 -98 -16 -28 -100 -96 -151 -123 -46 -23 -78
-58 -83 -90 -2 -15 -11 -26 -22 -28 -17 -4 -18 1 -11 60 12 117 28 145 96 167
50 16 75 48 83 102 6 37 16 55 59 99 57 58 102 90 129 90 10 0 24 -13 33 -30z"/>
<path d="M6370 4460 c0 -5 7 -10 15 -10 8 0 15 5 15 10 0 6 -7 10 -15 10 -8 0
-15 -4 -15 -10z"/>
<path d="M0 3686 l0 -626 23 1 c12 0 42 4 67 8 25 5 106 18 180 30 74 12 165
29 202 37 37 8 79 14 94 14 l27 0 -6 93 c-4 50 -11 214 -17 362 -6 149 -15
328 -20 399 -6 72 -10 154 -10 182 0 29 -4 63 -9 77 -9 22 -12 23 -63 17 -29
-4 -78 -3 -108 2 -30 6 -95 11 -145 12 -50 1 -118 6 -152 10 l-63 9 0 -627z"/>
</g>
</svg>
