<svg t="1729308768900" class="icon" viewBox="0 0 1024 1024" version="1.1" xmlns="http://www.w3.org/2000/svg" p-id="3923" width="200" height="200"><path d="M857.04 0H166.96C74.896 0 0 74.896 0 166.96v690.08C0 949.104 74.896 1024 166.96 1024h690.08c92.064 0 166.96-74.896 166.96-166.96V166.96C1024 74.896 949.104 0 857.04 0z m100.176 857.04c0 55.24-44.936 100.176-100.176 100.176H166.96c-55.24 0-100.176-44.936-100.176-100.176V166.96c0-55.24 44.936-100.176 100.176-100.176h690.08c55.24 0 100.176 44.936 100.176 100.176v690.08zM244.88 678.96c-55.24 0-100.176 44.936-100.176 100.168 0 55.24 44.936 100.176 100.176 100.176 55.232 0 100.168-44.936 100.168-100.176 0-55.232-44.936-100.168-100.168-100.168z m0 133.56a33.432 33.432 0 0 1-33.392-33.392 33.432 33.432 0 0 1 33.392-33.392 33.432 33.432 0 0 1 33.392 33.392 33.432 33.432 0 0 1-33.392 33.392z m0-667.824c-55.24 0-100.176 44.936-100.176 100.176 0 55.232 44.936 100.168 100.176 100.168 239.36 0 434.08 194.736 434.08 434.088 0 55.24 44.944 100.176 100.176 100.176 55.24 0 100.176-44.936 100.176-100.176 0-349.824-284.608-634.432-634.432-634.432z m534.256 667.824a33.432 33.432 0 0 1-33.392-33.392c0-276.176-224.688-500.864-500.864-500.864a33.432 33.432 0 0 1-33.4-33.392 33.432 33.432 0 0 1 33.4-33.392c313 0 567.648 254.64 567.648 567.648a33.424 33.424 0 0 1-33.392 33.392zM244.88 411.824c-55.24 0-100.176 44.936-100.176 100.176s44.936 100.176 100.176 100.176c92.056 0 166.96 74.896 166.96 166.96 0 55.232 44.936 100.168 100.168 100.168 55.232 0 100.176-44.936 100.176-100.176 0-202.528-164.776-367.304-367.304-367.304zM512 812.52a33.432 33.432 0 0 1-33.392-33.392c0-128.88-104.856-233.736-233.736-233.736A33.432 33.432 0 0 1 211.472 512a33.432 33.432 0 0 1 33.4-33.392c165.704 0 300.52 134.816 300.52 300.52A33.424 33.424 0 0 1 512 812.52z" fill="#20A0FF" p-id="3924"></path></svg>